<svg id="eShqp2a7j3H1" xmlns="http://www.w3.org/2000/svg" xmlns:xlink="http://www.w3.org/1999/xlink" viewBox="0 0 2363 2363" shape-rendering="geometricPrecision" text-rendering="geometricPrecision">
<style><![CDATA[
#eShqp2a7j3H2 {animation: eShqp2a7j3H2_c_o 3500ms linear infinite alternate-reverse forwards}@keyframes eShqp2a7j3H2_c_o { 0% {opacity: 0;animation-timing-function: cubic-bezier(0.42,0,0.58,1)} 28.571429% {opacity: 1} 100% {opacity: 1}} #eShqp2a7j3H4_to {animation: eShqp2a7j3H4_to__to 3500ms linear infinite alternate-reverse forwards}@keyframes eShqp2a7j3H4_to__to { 0% {transform: translate(-178.231003px,-163.957993px)} 57.142857% {transform: translate(-178.231003px,-163.957993px);animation-timing-function: cubic-bezier(0.42,0,0.58,1)} 85.714286% {transform: translate(-178.231003px,-61.277278px)} 100% {transform: translate(-178.231003px,-61.277278px)}} #eShqp2a7j3H4 {animation: eShqp2a7j3H4_c_o 3500ms linear infinite alternate-reverse forwards}@keyframes eShqp2a7j3H4_c_o { 0% {opacity: 0} 14.285714% {opacity: 0;animation-timing-function: cubic-bezier(0.42,0,0.58,1)} 42.857143% {opacity: 1} 100% {opacity: 1}} #eShqp2a7j3H6_to {animation: eShqp2a7j3H6_to__to 3500ms linear infinite alternate-reverse forwards}@keyframes eShqp2a7j3H6_to__to { 0% {transform: translate(-336.161987px,-1747.930054px)} 57.142857% {transform: translate(-336.161987px,-1747.930054px);animation-timing-function: cubic-bezier(0.42,0,0.58,1)} 85.714286% {transform: translate(-336.161987px,-1542.557911px)} 100% {transform: translate(-336.161987px,-1542.557911px)}} #eShqp2a7j3H6 {animation: eShqp2a7j3H6_c_o 3500ms linear infinite alternate-reverse forwards}@keyframes eShqp2a7j3H6_c_o { 0% {opacity: 0} 28.571429% {opacity: 0;animation-timing-function: cubic-bezier(0.42,0,0.58,1)} 57.142857% {opacity: 1} 100% {opacity: 1}}
]]></style>
<g id="eShqp2a7j3H2" transform="matrix(1.15169 0 0 1.15169-336.161987-167.774002)" clip-rule="evenodd"><path d="M2302.01,1708.1c0-82.35-66.86-149.21-149.21-149.21h-1670.776c-82.353,0-149.214,66.86-149.214,149.21v298.43c0,82.35,66.861,149.21,149.214,149.21h1670.776c82.35,0,149.21-66.86,149.21-149.21v-298.43Z" clip-rule="evenodd" fill="#b3b3b3" fill-rule="evenodd" stroke="#000" stroke-width="5.06" stroke-linecap="round" stroke-linejoin="round" stroke-miterlimit="1.5"/></g><g id="eShqp2a7j3H4_to" transform="translate(-178.231003,-61.277278)"><g id="eShqp2a7j3H4" transform="scale(1.15169,1.15169) translate(0,0)" clip-rule="evenodd"><path d="M2164.89,1018.77v298.43c0,82.36-66.86,149.22-149.22,149.22h-1670.775c-82.354,0-149.214-66.86-149.214-149.22v-298.43c0-82.349,66.86-149.21,149.214-149.21h1670.775c82.36,0,149.22,66.861,149.22,149.21Zm-1489.881,8.5c-12.5,0-21.549,2.8-27.148,8.39-5.599,5.6-8.398,14.65-8.398,27.15v209.96c0,9.25.813,16.77,2.441,22.56c1.628,5.8,5.111,10.29,10.449,13.48c5.339,3.19,13.281,4.78,23.828,4.78h75.586c13.151,0,24.968-.84,35.449-2.53c10.482-1.7,20.28-4.63,29.395-8.79c9.115-4.17,17.513-9.7,25.195-16.61c9.766-8.98,17.774-19.17,24.024-30.56c6.25-11.4,10.872-24.19,13.867-38.38s4.492-29.88,4.492-47.07c0-52.08-14.909-90.89-44.726-116.41-11.459-10.02-24.219-16.86-38.282-20.51-14.062-3.64-30.924-5.46-50.586-5.46h-75.586Zm22.461,45.89h38.282c17.708,0,32.812,1.93,45.312,5.77s23.014,12.79,31.543,26.85s12.793,35.22,12.793,63.48c0,40.1-9.7,68.36-29.101,84.76-4.297,3.78-9.375,6.71-15.235,8.79-5.859,2.09-11.523,3.39-16.992,3.91s-13.021.78-22.656.78h-43.946v-194.34Zm481.64,150c0-7.16-2.47-13.15-7.42-17.97-4.95-4.81-10.87-7.22-17.77-7.22-8.08,0-13.94,2.38-17.58,7.13-3.65,4.75-6.71,10.9-9.18,18.46-5.86,16.01-14.55,28.15-26.08,36.42-11.52,8.27-25.62,12.4-42.28,12.4-15.37,0-28.78-3.64-40.24-10.94-11.45-7.29-20.308-18.32-26.558-33.1s-9.375-33.3-9.375-55.57c0-33.33,7.063-59.05,21.193-77.15c14.13-18.09,33.1-27.14,56.93-27.14c14.98,0,27.57,3.51,37.8,10.54c10.22,7.04,19.1,17.65,26.65,31.84c4.56,8.59,8.7,14.65,12.41,18.16c3.71,3.52,9.27,5.28,16.7,5.28c6.64,0,12.3-2.54,16.99-7.62s7.03-10.94,7.03-17.58c0-12.11-4.82-24.97-14.45-38.57-9.64-13.61-23.51-25.03-41.6-34.28-18.1-9.24-38.74-13.87-61.92-13.87-19.01,0-36.91,3.39-53.71,10.16-16.797,6.77-31.445,16.63-43.945,29.59s-22.103,28.55-28.809,46.78c-6.706,18.22-10.058,38.86-10.058,61.91c0,14.19,1.334,27.6,4.003,40.24c2.67,12.62,6.674,24.51,12.012,35.64c5.339,11.13,11.784,21.19,19.336,30.18c8.464,9.89,17.741,17.87,27.832,23.92c10.091,6.06,21.319,10.52,33.689,13.38s26.11,4.3,41.21,4.3c19.93,0,37.37-3.19,52.35-9.57c14.97-6.38,27.28-14.68,36.91-24.91c9.64-10.22,16.7-20.63,21.19-31.25c4.5-10.61,6.74-20.47,6.74-29.59ZM1742,1325.12c-3.64,8.72-6.87,15.33-9.67,19.82s-5.95,7.65-9.47,9.47c-3.51,1.83-8.33,2.74-14.45,2.74-2.48,0-5.41-.39-8.79-1.17-2.74-.79-5.53-1.17-8.4-1.17-7.29,0-12.79,1.65-16.5,4.98-3.71,3.32-5.57,8.04-5.57,14.15c0,8.99,3.91,15.18,11.72,18.56s19.53,5.08,35.16,5.08c16.01,0,28.74-2.44,38.18-7.33c9.44-4.88,17.02-11.88,22.75-20.99c5.73-9.12,11.59-21.68,17.58-37.7l69.53-182.03c1.7-4.69,3.13-9.31,4.3-13.87c1.17-4.55,2.02-8.07,2.54-10.54c0-4.04-1.01-7.88-3.03-11.53-2.02-3.64-4.88-6.54-8.59-8.69s-7.59-3.22-11.62-3.22c-5.6,0-9.93.98-12.99,2.93s-5.96,5.73-8.69,11.33c-2.74,5.6-5.8,13.34-9.18,23.24l-42.78,122.07L1728.92,1130c-3-9.12-6.45-16.11-10.36-21-3.9-4.88-9.7-7.32-17.38-7.32-4.43,0-8.69,1.17-12.79,3.51-4.1,2.35-7.33,5.47-9.67,9.38s-3.52,8.14-3.52,12.7c0,4.29,2.02,11.19,6.06,20.7l65.62,165.23-4.88,11.92Zm-186.72-218.75c-17.84,0-26.75,6.38-26.75,19.14c0,5.73,2.14,10.38,6.44,13.96s10.42,5.37,18.36,5.37h14.65v141.22c0,10.54,2.51,18.58,7.52,24.12c5.01,5.53,11.29,8.3,18.85,8.3c7.94,0,14.42-2.77,19.43-8.3c5.01-5.54,7.52-13.58,7.52-24.12v-141.22h13.08c9.51,0,16.96-1.17,22.37-3.51c5.4-2.35,8.1-7.88,8.1-16.6c0-12.24-10.15-18.36-30.47-18.36h-13.08v-12.7c0-10.55,1.37-18.65,4.1-24.31c2.73-5.67,8.92-8.5,18.55-8.5c3.52,0,7.82.39,12.9,1.17c5.07.78,8.65,1.17,10.74,1.17c4.43,0,8.27-1.76,11.52-5.27c3.26-3.52,4.88-7.75,4.88-12.7c0-15.23-15.56-22.85-46.68-22.85-17.57,0-31.41,2.25-41.5,6.74s-17.25,11.66-21.48,21.49c-4.24,9.83-6.35,23.07-6.35,39.74v16.02h-12.7Zm381.25-29.49c7.16,0,13.35-2.32,18.56-6.94s7.81-11.03,7.81-19.24c0-8.46-2.67-14.91-8.01-19.33-5.34-4.43-11.46-6.64-18.36-6.64-7.16,0-13.44,2.44-18.85,7.32-5.4,4.88-8.1,11.1-8.1,18.65c0,8.34,2.64,14.78,7.91,19.34s11.62,6.84,19.04,6.84ZM479.697,1140.74h-8.008c-9.245,0-16.211,1.92-20.898,5.76-4.688,3.85-7.032,8.89-7.032,15.14c0,6.38,1.954,11.36,5.86,14.94s9.44,5.37,16.601,5.37c1.563,0,5.079-.26,10.547-.78c5.469-.52,9.505-.78,12.11-.78c14.843,0,26.432,4.33,34.765,12.99c8.334,8.66,12.5,20.6,12.5,35.84c0,10.29-2.441,19.34-7.324,27.15s-11.068,13.7-18.555,17.67-15.267,5.96-23.339,5.96c-14.063,0-24.968-4.39-32.715-13.18-7.748-8.79-15.007-22.24-21.778-40.34-1.041-2.99-3.255-5.56-6.64-7.71-3.386-2.15-6.901-3.22-10.547-3.22-7.292,0-13.379,2.31-18.262,6.93s-7.324,10.71-7.324,18.26c0,5.86,2.051,13.28,6.152,22.27c4.102,8.98,10.156,17.67,18.164,26.07s18.197,15.4,30.567,21c12.369,5.6,26.367,8.4,41.992,8.4c15.364,0,29.394-2.44,42.09-7.33c12.695-4.88,23.665-11.65,32.91-20.31s16.243-18.52,20.996-29.59s7.129-22.53,7.129-34.37c0-9.9-1.758-19.11-5.274-27.64-3.515-8.53-8.756-16.31-15.722-23.34s-15.528-13.28-25.684-18.75c10.547-8.86,18.653-17.94,24.317-27.25s8.496-20.47,8.496-33.49c0-9.9-1.953-19.14-5.86-27.74-3.906-8.59-9.7-16.14-17.382-22.65-7.683-6.51-16.732-11.49-27.149-14.95-10.417-3.45-21.94-5.17-34.57-5.17-14.453,0-27.539,2.05-39.258,6.15s-21.517,9.54-29.395,16.31c-7.877,6.77-13.867,13.9-17.968,21.39-4.102,7.48-6.153,14.61-6.153,21.38c0,7.03,2.181,12.67,6.543,16.9s9.147,6.35,14.356,6.35c4.427,0,8.333-.79,11.719-2.35c3.385-1.56,5.729-3.71,7.031-6.44c2.213-5.08,4.655-10.49,7.324-16.21c2.669-5.73,5.501-10.42,8.496-14.07c2.995-3.64,7.064-6.57,12.207-8.79c5.143-2.21,11.686-3.32,19.629-3.32c11.719,0,21.029,3.62,27.93,10.84c6.901,7.23,10.351,15.86,10.351,25.88c0,13.15-4.329,23.24-12.988,30.27-8.659,7.04-18.978,10.55-30.957,10.55Zm1483.203-8.79c0-9.5-2.54-16.92-7.62-22.26s-11.52-8.01-19.33-8.01c-7.82,0-14.16,2.67-19.05,8.01-4.88,5.34-7.32,13.28-7.32,23.83v152.54c0,10.41,2.44,18.42,7.32,24.02c4.89,5.6,11.23,8.4,19.05,8.4c7.81,0,14.25-2.74,19.33-8.21c5.08-5.46,7.62-13.54,7.62-24.21v-154.11Zm-620.51,70.12c35.55,0,62.31-7.52,80.28-22.56c17.96-15.04,26.95-37.14,26.95-66.31c0-13.67-2.22-25.97-6.64-36.91-4.43-10.94-10.91-20.18-19.43-27.73-8.53-7.56-18.66-12.96-30.38-16.22-11.84-3.38-28.77-5.07-50.78-5.07h-74.41c-12.76,0-22.07,2.73-27.93,8.2s-8.79,14.58-8.79,27.34v220.71c0,11.45,2.67,20.14,8.01,26.07c5.34,5.92,12.37,8.89,21.09,8.89c8.33,0,15.24-3,20.7-8.99c5.47-5.99,8.21-14.78,8.21-26.37v-81.05h53.12Zm-14.06-131.25c25.91,0,43.03,4.23,51.37,12.7c7.42,7.94,11.13,18.23,11.13,30.86c0,10.54-2.41,19.07-7.23,25.58-4.81,6.51-11.81,11.2-20.99,14.06-9.18,2.87-20.61,4.3-34.28,4.3h-39.06v-87.5h39.06Zm141.41,247.66c7.81,0,14.61-2.64,20.41-7.91c5.79-5.28,8.69-12.54,8.69-21.78c0-8.07-2.9-14.94-8.69-20.61-5.8-5.66-12.8-8.49-21-8.49s-15.1,2.86-20.7,8.59-8.4,12.57-8.4,20.51c0,9.37,2.93,16.67,8.79,21.87c5.86,5.21,12.82,7.82,20.9,7.82Z" clip-rule="evenodd" fill="#b3b3b3" fill-rule="evenodd" stroke="#000" stroke-width="5.06" stroke-linecap="round" stroke-linejoin="round" stroke-miterlimit="1.5"/></g></g><g id="eShqp2a7j3H6_to" transform="translate(-336.161987,-1542.557911)"><g id="eShqp2a7j3H6" transform="scale(1.15169,1.15169) translate(0,0)" clip-rule="evenodd"><path d="M2302.01,1708.1c0-82.35-66.86-149.21-149.21-149.21h-1670.776c-82.353,0-149.214,66.86-149.214,149.21v298.43c0,82.35,66.861,149.21,149.214,149.21h1670.776c82.35,0,149.21-66.86,149.21-149.21v-298.43Z" clip-rule="evenodd" fill="#b3b3b3" fill-rule="evenodd" stroke="#000" stroke-width="5.06" stroke-linecap="round" stroke-linejoin="round" stroke-miterlimit="1.5"/></g></g></svg>
