<?xml version="1.0" encoding="UTF-8" standalone="no"?><!DOCTYPE svg PUBLIC "-//W3C//DTD SVG 1.1//EN" "http://www.w3.org/Graphics/SVG/1.1/DTD/svg11.dtd"><svg width="1867px" height="1867px" version="1.1" xmlns="http://www.w3.org/2000/svg" xmlns:xlink="http://www.w3.org/1999/xlink" xml:space="preserve" xmlns:serif="http://www.serif.com/" style="fill-rule:evenodd;clip-rule:evenodd;stroke-linejoin:round;stroke-miterlimit:2;"><g transform="matrix(1,0,0,1,-8409.31,-25160.9)"><rect id="Artboard1" x="0" y="0" width="256000" height="256000" style="fill:none;"/><g id="Artboard11" serif:id="Artboard1"><g id="path2" transform="matrix(4.16667,0,0,4.16667,8409.31,25027.6)"><path d="M48,32L400,32C426.5,32 448,53.5 448,80L448,432C448,458.5 426.5,480 400,480L48,480C21.5,480 0,458.5 0,432L0,80C0,53.5 21.5,32 48,32ZM116.37,369.219C131.299,382.488 148.871,392.848 168.197,399.41C171.658,399.78 175.172,399.973 178.733,399.973C216.711,399.973 249.705,378.96 266.873,347.942C267.976,345.949 269.013,343.915 269.982,341.843C257.039,349.859 242.147,355.03 226.182,356.485C215.562,363.811 204.011,369.203 192.022,372.659C167.221,379.809 140.55,378.671 116.37,369.219ZM103.698,155.451C90.429,170.381 80.068,187.954 73.504,207.281C73.135,210.744 72.942,214.261 72.942,217.824C72.942,255.803 93.961,288.802 124.988,305.965L124.989,305.965C126.976,307.065 129.004,308.099 131.071,309.065C123.053,296.118 117.882,281.223 116.429,265.254C93.952,232.666 89.679,191.316 103.698,155.451ZM65.757,264.962C66.967,285.692 72.347,305.303 81.071,322.967C83.257,325.672 85.603,328.29 88.118,330.806C114.992,357.679 153.218,366.146 187.311,356.316L187.311,356.316C189.466,355.695 191.604,355.001 193.722,354.233C178.273,350.599 164.193,343.413 152.39,333.586C139.684,331.252 127.686,326.895 116.755,320.847C94.192,308.366 76.161,288.718 65.757,264.962ZM225.871,407.159C246.602,405.95 266.212,400.57 283.875,391.845C286.58,389.66 289.198,387.315 291.714,384.799L291.716,384.797C318.64,357.877 327.09,319.562 317.178,285.424C316.571,283.332 315.894,281.255 315.148,279.198C311.513,294.641 304.33,308.716 294.508,320.516C292.172,333.234 287.808,345.24 281.754,356.178C269.27,378.733 249.625,396.758 225.871,407.159ZM118.682,232.801C122.317,217.359 129.498,203.287 139.318,191.488C139.346,191.337 139.374,191.186 139.402,191.035C139.403,191.031 139.404,191.027 139.404,191.023C139.434,190.864 139.466,190.704 139.496,190.55C139.644,189.775 139.801,189.002 139.963,188.232C139.972,188.187 139.982,188.143 139.992,188.098C147.91,150.977 173.046,120.134 206.774,104.915C186.472,106.257 167.266,111.601 149.933,120.165C147.234,122.346 144.621,124.687 142.111,127.197C113.539,155.769 105.769,197.177 118.682,232.801ZM163.753,170.216C176.727,162.161 191.662,156.967 207.678,155.512C218.318,148.176 229.888,142.774 241.9,139.321C266.675,132.197 293.314,133.344 317.466,142.787C302.308,129.314 284.427,118.84 264.751,112.294C264.744,112.292 264.736,112.289 264.728,112.286L264.66,112.263C254.857,111.418 244.978,111.842 235.304,113.552L235.301,113.553C203.35,119.81 177.05,141.393 163.753,170.216ZM240.121,157.769C255.558,161.403 269.626,168.583 281.423,178.4C294.139,180.735 306.142,185.102 317.081,191.154C339.643,203.638 357.673,223.289 368.075,247.049C366.866,226.317 361.486,206.704 352.761,189.039L352.761,189.039C350.576,186.334 348.231,183.717 345.715,181.203L345.712,181.2C318.86,154.344 280.669,145.871 246.599,155.666C244.422,156.293 242.261,156.994 240.121,157.769ZM330.13,356.55C343.398,341.622 353.758,324.052 360.322,304.728C360.691,301.265 360.884,297.748 360.883,294.185L360.883,294.182C360.887,256.199 339.869,223.201 308.846,206.036C306.857,204.935 304.826,203.9 302.758,202.932C310.776,215.879 315.948,230.774 317.401,246.744C324.681,257.3 330.053,268.774 333.511,280.681L333.512,280.682C340.73,305.544 339.612,332.301 330.13,356.55Z" style="fill:rgb(58,58,58);"/></g></g></g></svg>