<?xml version="1.0" encoding="UTF-8" standalone="no"?><!DOCTYPE svg PUBLIC "-//W3C//DTD SVG 1.1//EN" "http://www.w3.org/Graphics/SVG/1.1/DTD/svg11.dtd"><svg width="1867px" height="1867px" version="1.1" xmlns="http://www.w3.org/2000/svg" xmlns:xlink="http://www.w3.org/1999/xlink" xml:space="preserve" xmlns:serif="http://www.serif.com/" style="fill-rule:evenodd;clip-rule:evenodd;stroke-linejoin:round;stroke-miterlimit:2;"><g transform="matrix(1,0,0,1,-32573.9,-25160.9)"><rect id="Artboard1" x="0" y="0" width="256000" height="256000" style="fill:none;"/><g id="Artboard11" serif:id="Artboard1"><g id="path2" transform="matrix(4.16667,0,0,4.16667,32573.9,25027.6)"><path d="M48,32C21.5,32 0,53.5 0,80L0,432C0,458.5 21.5,480 48,480L400,480C426.5,480 448,458.5 448,432L448,80C448,53.5 426.5,32 400,32L48,32ZM224.195,96C271.371,96 309.754,134.383 309.754,181.561L309.754,262.02C319.343,277.451 324.891,295.644 324.891,315.111C324.891,370.736 279.631,416 224.002,416C168.374,416 123.109,370.736 123.109,315.111C123.109,295.383 128.807,276.96 138.635,261.396L138.635,181.561C138.635,134.383 177.021,96 224.195,96ZM224.195,130.264C195.914,130.264 172.9,153.275 172.9,181.561L172.9,228.15C187.898,219.303 205.367,214.219 224.002,214.219C242.798,214.219 260.407,219.39 275.49,228.379L275.49,181.561C275.49,153.275 252.477,130.264 224.195,130.264ZM224.002,248.484C187.265,248.484 157.373,278.373 157.373,315.111C157.373,351.846 187.265,381.738 224.002,381.738C260.738,381.738 290.623,351.846 290.623,315.111C290.623,278.373 260.738,248.484 224.002,248.484ZM224.33,287.141C239.943,287.141 252.598,299.798 252.598,315.416C252.598,331.025 239.943,343.68 224.33,343.68C208.718,343.68 196.063,331.025 196.063,315.416C196.063,299.798 208.718,287.141 224.33,287.141Z" style="fill:rgb(221,28,119);fill-rule:nonzero;"/></g></g></g></svg>
