<?xml version="1.0" encoding="UTF-8" standalone="no"?><!DOCTYPE svg PUBLIC "-//W3C//DTD SVG 1.1//EN" "http://www.w3.org/Graphics/SVG/1.1/DTD/svg11.dtd"><svg width="1867px" height="1867px" version="1.1" xmlns="http://www.w3.org/2000/svg" xmlns:xlink="http://www.w3.org/1999/xlink" xml:space="preserve" xmlns:serif="http://www.serif.com/" style="fill-rule:evenodd;clip-rule:evenodd;stroke-linejoin:round;stroke-miterlimit:2;"><g transform="matrix(1,0,0,1,-28180.3,-25160.9)"><rect id="Artboard1" x="0" y="0" width="256000" height="256000" style="fill:none;"/><g id="Artboard11" serif:id="Artboard1"><g transform="matrix(1,0,0,1,-4621.82,18967)"><g id="path2" transform="matrix(4.16667,0,0,4.16667,32802.1,6060.61)"><path d="M48,32L400,32C426.5,32 448,53.5 448,80L448,432C448,458.5 426.5,480 400,480L48,480C21.5,480 0,458.5 0,432L0,80C0,53.5 21.5,32 48,32ZM196.766,289.134L251.863,192.563C258.224,195.464 265.293,197.08 272.739,197.08C276.785,197.08 280.721,196.603 284.492,195.701L302.056,250.813C290.688,256.212 282.827,267.812 282.827,281.251C282.827,299.846 297.877,314.92 316.442,314.92C335.007,314.92 350.057,299.846 350.057,281.251C350.057,262.657 335.007,247.583 316.442,247.583C314.247,247.583 312.102,247.793 310.025,248.195L292.457,193.073C310.506,185.384 323.162,167.462 323.162,146.579C323.162,118.687 300.587,96.077 272.739,96.077C244.891,96.077 222.316,118.687 222.316,146.579C222.316,164.005 231.128,179.37 244.533,188.446L189.085,285.634C181.655,282.802 173.595,281.251 165.173,281.251C128.043,281.251 97.943,311.399 97.943,348.588C97.943,385.776 128.043,415.923 165.173,415.923C202.303,415.923 232.403,385.776 232.403,348.588C232.403,322.837 217.971,300.462 196.766,289.134Z" style="fill:rgb(58,58,58);"/></g></g></g></g></svg>