<?xml version="1.0" encoding="UTF-8" standalone="no"?><!DOCTYPE svg PUBLIC "-//W3C//DTD SVG 1.1//EN" "http://www.w3.org/Graphics/SVG/1.1/DTD/svg11.dtd"><svg width="1867px" height="1867px" version="1.1" xmlns="http://www.w3.org/2000/svg" xmlns:xlink="http://www.w3.org/1999/xlink" xml:space="preserve" xmlns:serif="http://www.serif.com/" style="fill-rule:evenodd;clip-rule:evenodd;stroke-linejoin:round;stroke-miterlimit:2;"><g transform="matrix(1,0,0,1,-70471.7,-25160.9)"><g id="path2" transform="matrix(4.16667,0,0,4.16667,70471.7,25027.6)"><path d="M48,32L400,32C426.5,32 448,53.5 448,80L448,432C448,458.5 426.5,480 400,480L48,480C21.5,480 0,458.5 0,432L0,80C0,53.5 21.5,32 48,32ZM283.319,404.423C307.41,394.835 329.101,379.428 346.239,359.199L345.965,359.025C369.623,331.11 383.958,295.098 383.958,256C383.958,168.25 311.75,96.042 224,96.042C159.749,96.042 103.831,134.754 78.49,189.934L78.438,189.901C77.019,193.04 75.704,196.22 74.493,199.435C67.745,217.054 64.042,236.128 64.042,256C64.042,343.75 136.25,415.958 224,415.958C244.911,415.958 264.94,411.857 283.319,404.423ZM151.503,159.648L151.503,333.966L224,285.644L296.497,333.966L296.497,159.648C325.751,181.779 344.794,216.84 344.794,256C344.794,322.266 290.266,376.794 224,376.794C157.734,376.794 103.206,322.266 103.206,256C103.206,216.84 122.249,181.779 151.503,159.648Z" style="fill:rgb(58,58,58);"/></g><g id="path21" serif:id="path2" transform="matrix(4.16667,0,0,4.16667,70471.7,25027.6)"><path d="M48,32L400,32C426.5,32 448,53.5 448,80L448,432C448,458.5 426.5,480 400,480L48,480C21.5,480 0,458.5 0,432L0,80C0,53.5 21.5,32 48,32ZM283.319,404.423C307.41,394.835 329.101,379.428 346.239,359.199L345.965,359.025C369.623,331.11 383.958,295.098 383.958,256C383.958,168.25 311.75,96.042 224,96.042C159.749,96.042 103.831,134.754 78.49,189.934L78.438,189.901C77.019,193.04 75.704,196.22 74.493,199.435C67.745,217.054 64.042,236.128 64.042,256C64.042,343.75 136.25,415.958 224,415.958C244.911,415.958 264.94,411.857 283.319,404.423ZM151.503,159.648L151.503,333.966L224,285.644L296.497,333.966L296.497,159.648C325.751,181.779 344.794,216.84 344.794,256C344.794,322.266 290.266,376.794 224,376.794C157.734,376.794 103.206,322.266 103.206,256C103.206,216.84 122.249,181.779 151.503,159.648Z" style="fill:rgb(58,58,58);"/></g></g></svg>
