<?xml version="1.0" encoding="UTF-8" standalone="no"?><!DOCTYPE svg PUBLIC "-//W3C//DTD SVG 1.1//EN" "http://www.w3.org/Graphics/SVG/1.1/DTD/svg11.dtd"><svg width="1867px" height="1867px" version="1.1" xmlns="http://www.w3.org/2000/svg" xmlns:xlink="http://www.w3.org/1999/xlink" xml:space="preserve" xmlns:serif="http://www.serif.com/" style="fill-rule:evenodd;clip-rule:evenodd;stroke-linejoin:round;stroke-miterlimit:2;"><g transform="matrix(1,0,0,1,-6212.53,-25160.9)"><rect id="Artboard1" x="0" y="0" width="256000" height="256000" style="fill:none;"/><g id="Artboard11" serif:id="Artboard1"><g id="path2" transform="matrix(4.16667,0,0,4.16667,6212.53,25027.6)"><path d="M48,32L400,32C426.5,32 448,53.5 448,80L448,432C448,458.5 426.5,480 400,480L48,480C21.5,480 0,458.5 0,432L0,80C0,53.5 21.5,32 48,32ZM144.825,105.764C138.369,105.873 132.43,109.352 129.189,114.96L50.212,251.629C46.925,257.308 46.925,264.314 50.202,270.014L129.091,406.725C132.363,412.415 138.436,415.925 145.011,415.925L302.877,415.992C309.442,415.982 315.51,412.472 318.808,406.807L397.775,270.138C401.062,264.459 401.093,257.448 397.795,251.738C397.795,251.738 318.943,115.073 318.927,115.042C315.707,109.466 309.432,105.832 302.986,105.832L151.421,105.764L144.825,105.764ZM328.599,168.645L376.666,251.95L347.424,251.991L328.599,168.645ZM155.19,124.17L250.202,124.191L169.475,149.83L155.19,124.17ZM139.86,133.252L154.041,158.766L91.482,216.935L139.86,133.252ZM91.28,304.423L154.139,363.607L140.114,389.059L91.28,304.423ZM155.812,397.535L169.589,372.471L250.388,397.576L155.812,397.535ZM192.603,161.168L300.858,126.816L325.824,237.267L192.603,161.168ZM192.551,360.93L325.71,284.423L300.2,394.397L192.551,360.93ZM347.398,269.807L376.77,269.76L327.729,354.603L347.398,269.807ZM70.736,260.581L151.763,185.238L151.949,337.083L70.736,260.581ZM169.573,168.852L169.817,168.707L331.079,260.783L169.796,353.454L169.573,168.852Z" style="fill:rgb(58,58,58);"/></g></g></g></svg>