<?xml version="1.0" encoding="UTF-8" standalone="no"?><!DOCTYPE svg PUBLIC "-//W3C//DTD SVG 1.1//EN" "http://www.w3.org/Graphics/SVG/1.1/DTD/svg11.dtd"><svg width="1867px" height="1867px" version="1.1" xmlns="http://www.w3.org/2000/svg" xmlns:xlink="http://www.w3.org/1999/xlink" xml:space="preserve" xmlns:serif="http://www.serif.com/" style="fill-rule:evenodd;clip-rule:evenodd;stroke-linejoin:round;stroke-miterlimit:2;"><g transform="matrix(1,0,0,1,-39164.2,-25160.9)"><rect id="Artboard1" x="0" y="0" width="256000" height="256000" style="fill:none;"/><g id="Artboard11" serif:id="Artboard1"><g id="path2" transform="matrix(4.16667,0,0,4.16667,39164.2,25027.6)"><path d="M48,32C21.5,32 0,53.5 0,80L0,432C0,458.5 21.5,480 48,480L400,480C426.5,480 448,458.5 448,432L448,80C448,53.5 426.5,32 400,32L48,32ZM224,96C312.365,96 384,167.635 384,256C384,344.365 312.365,416 224,416C135.635,416 64,344.365 64,256C64,167.635 135.635,96 224,96ZM156.414,156.934L156.414,220.482C153.021,216.961 147.289,213.345 144.088,211.809C138.519,209.121 130.7,208.553 124.363,208.553C113.479,208.553 103.224,214.343 94.838,221.578C84.274,230.669 78.992,242.833 78.992,258.07C78.992,273.052 83.835,286.949 94.143,296.039C102.785,303.656 112.645,307.158 123.721,307.158C130.572,307.158 137.873,305.198 143.25,302.189C146.322,300.462 153.403,296.611 156.412,292.834L156.412,304.896L186.049,304.896L186.049,156.934L156.414,156.934ZM325.07,157.545C320.141,157.545 315.948,159.273 312.49,162.73C309.097,166.124 307.398,170.286 307.4,175.215C307.4,180.144 309.097,184.338 312.49,187.795C315.946,191.252 320.14,192.98 325.07,192.98C330.064,192.98 334.257,191.284 337.65,187.891C341.108,184.433 342.834,180.208 342.834,175.215C342.834,170.285 341.108,166.124 337.65,162.73C334.193,159.273 329.999,157.545 325.07,157.545ZM247.047,207.27C228.737,207.27 214.62,212.978 204.697,224.393C196.503,233.848 192.404,244.689 192.404,256.914C192.404,270.49 196.472,281.937 204.602,291.258C214.463,302.604 228.29,308.279 246.088,308.279C263.821,308.279 277.618,302.606 287.477,291.26C295.606,281.939 299.674,270.76 299.672,257.725C299.672,244.823 295.576,233.714 287.381,224.393C277.329,212.977 263.884,207.27 247.047,207.27ZM309.32,210.736L309.32,304.822L340.818,304.822L340.818,210.736L309.32,210.736ZM133.414,234.391C139.047,234.391 146.263,237.912 150.232,241.883C154.202,245.788 155.748,252.533 155.748,258.166C155.748,263.863 152.446,270.421 148.477,274.326C144.573,278.232 137.796,280.623 132.098,280.623C125.759,280.623 121.483,277.378 117.514,272.641C114.248,268.799 112.396,263.316 112.396,258.387C112.396,253.456 114.03,247.535 117.295,243.693C121.328,238.956 127.139,234.393 133.414,234.393L133.414,234.391ZM246.088,235.939C251.849,235.939 256.747,238.071 260.779,242.326C264.876,246.514 266.926,251.646 266.926,257.725C266.926,263.871 264.91,269.068 260.875,273.324C256.842,277.512 251.915,279.609 246.088,279.609C239.559,279.609 234.244,277.042 230.146,271.908C226.819,267.788 225.152,263.061 225.152,257.725C225.152,252.456 226.819,247.761 230.146,243.641C234.244,238.507 239.559,235.939 246.088,235.939Z" style="fill:rgb(58,58,58);fill-rule:nonzero;"/></g></g></g></svg>