<?xml version="1.0" encoding="UTF-8" standalone="no"?><!DOCTYPE svg PUBLIC "-//W3C//DTD SVG 1.1//EN" "http://www.w3.org/Graphics/SVG/1.1/DTD/svg11.dtd"><svg width="1867px" height="1867px" version="1.1" xmlns="http://www.w3.org/2000/svg" xmlns:xlink="http://www.w3.org/1999/xlink" xml:space="preserve" xmlns:serif="http://www.serif.com/" style="fill-rule:evenodd;clip-rule:evenodd;stroke-linejoin:round;stroke-miterlimit:2;"><g transform="matrix(1,0,0,1,-17196.4,-25160.9)"><rect id="Artboard1" x="0" y="0" width="256000" height="256000" style="fill:none;"/><g id="Artboard11" serif:id="Artboard1"><g id="path2" transform="matrix(4.16667,0,0,4.16667,17196.4,25027.6)"><path d="M48,32L400,32C426.5,32 448,53.5 448,80L448,432C448,458.5 426.5,480 400,480L48,480C21.5,480 0,458.5 0,432L0,80C0,53.5 21.5,32 48,32ZM168.212,197.254C127.428,169.527 76.049,162.341 75.853,163.517C75.355,183.087 74.859,202.657 74.362,222.227C134.097,225.665 137.671,262.822 134.064,286.589L72.401,306.384L69.44,415.992L177.695,374.033C190.339,368.864 202.984,363.886 215.629,359.33L215.629,283.778C215.629,250.03 198.438,217.806 168.212,197.254ZM215.628,231.686C209.414,147.756 91.432,117.404 91.162,119.026C90.944,129.518 90.725,140.009 90.508,150.501C118.549,156.201 187.729,182.18 215.628,231.686ZM214.087,190.937C208.721,124.629 117.734,95.015 117.565,96.033C117.5,101.578 117.437,107.124 117.374,112.671C145.97,124.56 192.537,151.609 214.087,190.937ZM232.372,231.686C260.273,182.18 329.451,156.201 357.492,150.501C357.275,140.009 357.056,129.518 356.838,119.026C356.568,117.404 238.586,147.756 232.372,231.686ZM233.914,190.937C255.464,151.609 302.032,124.56 330.628,112.671C330.564,107.124 330.501,101.578 330.437,96.033C330.268,95.015 239.281,124.629 233.914,190.937ZM279.788,197.254C249.563,217.806 232.372,250.03 232.371,283.778L232.371,359.33C245.016,363.886 257.661,368.864 270.305,374.033L378.56,415.992L375.599,306.384L313.936,286.589C310.329,262.822 313.903,225.665 373.638,222.227C373.143,202.657 372.645,183.087 372.147,163.517C371.951,162.341 320.572,169.527 279.788,197.254Z" style="fill:rgb(58,58,58);"/></g></g></g></svg>