<?xml version="1.0" encoding="UTF-8" standalone="no"?><!DOCTYPE svg PUBLIC "-//W3C//DTD SVG 1.1//EN" "http://www.w3.org/Graphics/SVG/1.1/DTD/svg11.dtd"><svg width="1867px" height="1867px" version="1.1" xmlns="http://www.w3.org/2000/svg" xmlns:xlink="http://www.w3.org/1999/xlink" xml:space="preserve" xmlns:serif="http://www.serif.com/" style="fill-rule:evenodd;clip-rule:evenodd;stroke-linejoin:round;stroke-miterlimit:2;"><g transform="matrix(1,0,0,1,-23786.8,-25160.9)"><rect id="Artboard1" x="0" y="0" width="256000" height="256000" style="fill:none;"/><g id="Artboard11" serif:id="Artboard1"><g id="path2" transform="matrix(4.16667,0,0,4.16667,23786.8,25027.6)"><path d="M48,32L400,32C426.5,32 448,53.5 448,80L448,432C448,458.5 426.5,480 400,480L48,480C21.5,480 0,458.5 0,432L0,80C0,53.5 21.5,32 48,32ZM241.318,283.225C247.968,276.253 251.29,267.195 251.29,256.06C251.29,246.303 248.197,237.715 242,230.288C235.801,222.864 226.479,219.148 214.012,219.148L185.322,219.148L185.322,293.675L215.43,293.675C226.04,293.675 234.669,290.191 241.318,283.225ZM224.039,241.954C226.34,245.885 227.492,250.557 227.492,255.974C227.492,262.3 226.197,267.299 223.608,270.968C221.018,274.641 217.837,276.475 214.067,276.475L208.147,276.475L208.147,236.066L214.067,236.066C218.411,236.066 221.739,238.029 224.039,241.954ZM316.731,260.004C321.662,255.642 324.134,249.915 324.134,242.823C324.134,238.167 322.928,233.965 320.514,230.222C318.097,226.476 314.835,223.696 310.72,221.876C306.597,220.061 300.585,219.148 292.68,219.148L260.946,219.148L260.946,293.675L284.046,293.675L284.046,266.548L296.957,266.548C305.203,266.548 311.788,264.372 316.731,260.004ZM292.145,236.066C298.347,236.066 301.448,238.419 301.448,243.119C301.448,248.11 298.09,250.608 291.385,250.608L283.774,250.608L283.774,236.066L292.145,236.066ZM57,195.296L57,309.035L62.62,305.233L62.62,199.074L62.489,198.985L143.026,152.323L223.486,199.258L228.886,195.514L143.098,145.777L143.099,145.695L143.027,145.736L142.956,145.695L142.957,145.776L57.011,195.279L57,195.272L57,195.286L56.992,195.29L57,195.296ZM151.408,293.675L172.563,293.675L172.563,219.148L142.543,219.148L132.271,258.73L121.507,219.148L91.701,219.148L91.701,293.675L108.817,293.675L108.817,240.387L123.082,293.675L137.547,293.675L151.408,240.387L151.408,293.675ZM376.393,309.69L376.408,303.294L307.353,343.096L307.329,349.697L376.393,309.69ZM304.902,366.219L304.901,366.305L304.977,366.262L305.051,366.305L305.051,366.219L390.99,316.725L390.995,316.728L390.995,316.722L391.008,316.714L390.995,316.706L390.995,202.967L385.382,206.887L385.382,312.928L385.516,313.018L304.976,359.677L224.519,312.742L219.112,316.486L304.902,366.219ZM140.644,168.911L140.674,162.309L71.61,202.31L71.59,208.712L140.644,168.911ZM332.552,293.675L355.375,293.675L355.375,219.148L332.552,219.148L332.552,293.675Z" style="fill:rgb(58,58,58);"/></g></g></g></svg>