<?xml version="1.0" encoding="UTF-8" standalone="no"?><!DOCTYPE svg PUBLIC "-//W3C//DTD SVG 1.1//EN" "http://www.w3.org/Graphics/SVG/1.1/DTD/svg11.dtd"><svg width="1867px" height="1867px" version="1.1" xmlns="http://www.w3.org/2000/svg" xmlns:xlink="http://www.w3.org/1999/xlink" xml:space="preserve" xmlns:serif="http://www.serif.com/" style="fill-rule:evenodd;clip-rule:evenodd;stroke-linejoin:round;stroke-miterlimit:2;"><g transform="matrix(1,0,0,1,-47951.3,-25160.9)"><rect id="Artboard1" x="0" y="0" width="256000" height="256000" style="fill:none;"/><g id="Artboard11" serif:id="Artboard1"><g id="path2" transform="matrix(4.16667,0,0,4.16667,47951.3,25027.6)"><path d="M48,32C21.5,32 0,53.5 0,80L0,432C0,458.5 21.5,480 48,480L400,480C426.5,480 448,458.5 448,432L448,80C448,53.5 426.5,32 400,32L48,32ZM224,96C312.373,96 384,167.64 384,256C384,344.36 312.373,416 224,416C135.627,416 64,344.36 64,256C64,167.64 135.627,96 224,96ZM161.387,154.254C154.187,154.254 148.348,160.106 148.348,167.279C148.348,174.506 154.2,180.32 161.387,180.32C168.6,180.32 174.425,174.519 174.439,167.279C174.439,160.093 168.6,154.254 161.387,154.254ZM151.92,194.16L151.92,326.654L170.879,326.654L170.879,194.16L151.92,194.16ZM200.453,194.16L200.453,326.453L242.361,326.453C254.134,326.453 262.095,326.134 266.281,325.48C270.455,324.801 275.027,323.48 280.027,321.533C288.574,318.306 296.068,313.56 302.508,307.213C308.841,301.08 313.706,293.961 317.119,285.867L317.121,285.867C320.521,277.787 322.254,269.306 322.24,260.426C322.24,248.053 319.134,236.601 312.934,226.107C306.733,215.627 298.4,207.654 287.906,202.254C277.399,196.841 263.161,194.16 245.121,194.16L200.453,194.16ZM219.453,211.039L243.133,211.039C252.253,211.039 258.841,211.374 262.947,212.08C267.067,212.76 271.414,214.201 276.014,216.348L276.014,216.346C280.574,218.506 284.653,221.266 288.199,224.6C297.813,233.587 302.613,245.199 302.613,259.426C302.613,273.906 297.933,285.88 288.586,295.373C285.666,298.293 282.454,300.734 278.947,302.721C275.441,304.721 271.066,306.347 265.813,307.641C260.559,308.934 253.201,309.586 243.734,309.586L219.453,309.586L219.453,211.039Z" style="fill:rgb(58,58,58);fill-rule:nonzero;"/></g></g></g></svg>