<?xml version="1.0" encoding="UTF-8" standalone="no"?><!DOCTYPE svg PUBLIC "-//W3C//DTD SVG 1.1//EN" "http://www.w3.org/Graphics/SVG/1.1/DTD/svg11.dtd"><svg width="1867px" height="1867px" version="1.1" xmlns="http://www.w3.org/2000/svg" xmlns:xlink="http://www.w3.org/1999/xlink" xml:space="preserve" xmlns:serif="http://www.serif.com/" style="fill-rule:evenodd;clip-rule:evenodd;stroke-linejoin:round;stroke-miterlimit:2;"><g transform="matrix(1,0,0,1,-12802.9,-25160.9)"><rect id="Artboard1" x="0" y="0" width="256000" height="256000" style="fill:none;"/><g id="Artboard11" serif:id="Artboard1"><g id="path2" transform="matrix(4.16667,0,0,4.16667,12802.9,25027.6)"><path d="M48,32L400,32C426.5,32 448,53.5 448,80L448,432C448,458.5 426.5,480 400,480L48,480C21.5,480 0,458.5 0,432L0,80C0,53.5 21.5,32 48,32ZM236.462,414.034C176.909,414.034 128.635,363.411 128.635,300.96C128.635,244.164 169.814,199.009 221.833,196.515C154.857,176.504 90.622,241.066 93.297,305.382C95.595,360.522 131.879,399.265 182.996,412.395C200.305,416.752 224.568,417.025 241.522,413.896C239.842,413.978 238.154,414.034 236.462,414.034ZM292.433,123.227C265.017,136.063 247.681,160.572 237.509,179.487C301.735,183.65 306.19,149.561 319.739,126.411C333.324,103.218 354.784,111.357 354.784,111.357C249.257,60.662 225.649,149.874 230.906,172.5C259.142,128.728 292.433,123.227 292.433,123.227ZM221.833,166.702C217.827,147.057 167.236,85.541 102.648,163.253C102.648,163.253 116.568,149.148 135.559,162.471C154.515,175.76 170.265,200.906 219.161,174.557C204.384,163.366 181.974,150.369 155.841,150.151C155.841,150.151 183.944,142.5 221.833,166.702ZM205.35,382.317C238.658,413.6 281.202,409.817 313.5,381.943C332.72,361.248 344.69,329.844 344.012,294.879C342.82,233.675 287.347,179.904 236.263,196.102C272.393,189.458 327.241,223.814 315.054,274.667C305.09,316.251 259.52,339.668 223.281,314.861C202.61,300.714 196.776,271.709 220.088,238.965C194,240.883 173.918,277.646 174.487,307.103C174.76,320.957 177.209,334.439 181.781,346.72C185.413,355.757 189.979,364.072 195.31,371.457C198.32,375.383 201.675,379.018 205.35,382.317Z" style="fill:rgb(58,58,58);"/></g></g></g></svg>