<?xml version="1.0" encoding="UTF-8" standalone="no"?><!DOCTYPE svg PUBLIC "-//W3C//DTD SVG 1.1//EN" "http://www.w3.org/Graphics/SVG/1.1/DTD/svg11.dtd"><svg width="1867px" height="1867px" version="1.1" xmlns="http://www.w3.org/2000/svg" xmlns:xlink="http://www.w3.org/1999/xlink" xml:space="preserve" xmlns:serif="http://www.serif.com/" style="fill-rule:evenodd;clip-rule:evenodd;stroke-linejoin:round;stroke-miterlimit:2;"><g transform="matrix(1,0,0,1,-50148.1,-25160.9)"><rect id="Artboard1" x="0" y="0" width="256000" height="256000" style="fill:none;"/><g id="Artboard11" serif:id="Artboard1"><g id="path2" transform="matrix(4.16667,0,0,4.16667,50148.1,25027.6)"><path d="M48,32C21.5,32 0,53.5 0,80L0,432C0,458.5 21.5,480 48,480L400,480C426.5,480 448,458.5 448,432L448,80C448,53.5 426.5,32 400,32L48,32ZM325.201,96C330.828,96 335.932,96.651 340.459,97.98C344.935,99.298 348.948,101.115 352.49,103.441C355.981,105.743 359.001,108.454 361.494,111.523C364.051,114.605 366.109,117.892 367.721,121.422C368.347,122.547 368.17,123.442 367.172,124.068L353.271,129.783C352.094,130.411 351.265,130.091 350.611,128.85C347.492,123.07 344.831,119.273 340.459,116.512C336.034,113.762 331.941,112.457 325.201,112.457C317.874,112.457 314.6,113.914 310.01,117.201C305.457,120.424 302.12,124.477 300.15,130.652C299.755,131.766 299.396,133.148 298.975,134.771C298.629,136.421 298.348,138.442 298.17,140.807C297.99,143.173 297.823,146.102 297.67,149.555C297.568,153.008 297.518,157.201 297.518,162.061C297.518,166.945 297.568,171.139 297.67,174.592C297.823,178.032 297.991,180.96 298.17,183.326C298.348,185.717 298.629,187.725 298.975,189.389C299.396,190.987 299.755,192.366 300.15,193.492C302.12,199.643 304.933,203.006 309.076,205.705C313.168,208.442 317.874,210.412 325.201,210.412C331.711,210.412 337.67,208.557 341.557,205.73C345.406,202.905 348.603,199.171 350.035,194.068C350.663,191.92 351.468,189.246 352.018,185.973C352.516,182.699 352.518,179.235 352.518,174.453C352.518,173.698 352.094,173.313 351.391,173.313L329.127,173.313C327.874,173.313 327.26,172.7 327.26,171.447L327.26,158.686C327.26,157.419 327.874,156.805 329.127,156.805L369.984,156.805C371.264,156.805 371.865,157.419 371.865,158.686L371.865,169.592C371.865,175.372 371.865,180.732 371.264,185.693C370.688,190.655 369.909,194.95 368.924,198.082C365.803,207.891 360.855,214.875 353.271,220.078C345.662,225.321 335.854,228.146 325.201,228.146C314.255,228.146 305.036,225.63 297.518,220.629C289.986,215.565 284.6,208.133 281.314,198.197C280.687,196.318 280.203,194.388 279.832,192.367C279.448,190.36 279.101,188.019 278.795,185.32C278.476,182.597 278.271,179.401 278.145,175.629C278.016,171.883 277.965,167.304 277.965,162.061C277.965,156.791 278.017,152.279 278.145,148.52C278.272,144.747 278.476,141.51 278.795,138.813C279.101,136.127 279.448,133.775 279.832,131.768C280.203,129.747 280.689,127.828 281.316,125.949C284.602,116.013 289.986,108.545 297.518,103.531C305.036,98.518 314.255,96 325.201,96ZM173.527,173.813C217.096,173.813 250.33,193.671 250.33,236.459C250.33,265.487 227.414,294.542 196.469,301.779C215.202,335.028 237.721,364.441 254.549,382.752C264.447,393.455 278.195,403.02 291.941,403.02L291.941,412.932C287.749,414.862 280.881,416 274.396,416C252.236,416 234.678,407.227 223.195,393.455C210.611,378.953 188.45,347.61 165.15,305.986C152.899,305.986 144.882,305.986 135.713,305.219L135.713,369.004C135.713,392.7 141.085,397.675 151.391,399.172L171.264,401.881L171.264,412.932C161.711,412.561 139.55,411.805 122.363,411.805C104.396,411.805 86.441,412.561 76.135,412.932L76.135,401.881L90.637,399.172C100.611,397.28 106.289,392.7 106.289,369.004L106.289,218.506C106.289,194.798 100.611,190.245 90.637,188.326L76.135,185.666L76.135,174.58C85.661,174.951 100.956,174.949 116.264,174.949C133.04,174.949 151.008,173.813 173.527,173.813ZM166.66,190.998C156.34,190.998 144.524,190.998 135.713,191.766L135.713,287.611C144.524,288.442 150.228,288.787 163.221,288.787C197.236,288.787 217.85,268.544 217.85,238.365C217.85,207.829 198.77,190.998 166.66,190.998Z" style="fill:rgb(58,58,58);fill-rule:nonzero;"/></g></g></g></svg>