<?xml version="1.0" encoding="UTF-8" standalone="no"?><!DOCTYPE svg PUBLIC "-//W3C//DTD SVG 1.1//EN" "http://www.w3.org/Graphics/SVG/1.1/DTD/svg11.dtd"><svg width="1867px" height="1867px" version="1.1" xmlns="http://www.w3.org/2000/svg" xmlns:xlink="http://www.w3.org/1999/xlink" xml:space="preserve" xmlns:serif="http://www.serif.com/" style="fill-rule:evenodd;clip-rule:evenodd;stroke-linejoin:round;stroke-miterlimit:2;"><g transform="matrix(1,0,0,1,-52344.9,-25160.9)"><rect id="Artboard1" x="0" y="0" width="256000" height="256000" style="fill:none;"/><g id="Artboard11" serif:id="Artboard1"><g id="path2" transform="matrix(4.16667,0,0,4.16667,52344.9,25027.6)"><path d="M48,32C21.5,32 0,53.5 0,80L0,432C0,458.5 21.5,480 48,480L400,480C426.5,480 448,458.5 448,432L448,80C448,53.5 426.5,32 400,32L48,32ZM144.969,141.945L194.705,141.945L169.846,180.023L144.969,141.945ZM248.992,141.945L298.729,141.945L273.873,180.023L248.992,141.945ZM220.301,188.732C230.056,188.732 239.054,190.265 247.271,193.318C255.51,196.372 262.601,200.758 268.605,206.455C274.61,212.152 279.283,219.063 282.623,227.158C283.074,228.265 283.482,229.369 283.871,230.496L283.871,191.906L332.154,191.906C338.487,191.906 344.514,192.522 350.211,193.752C355.908,194.982 360.904,197.051 365.188,199.92C369.471,202.809 372.893,206.681 375.414,211.559C377.935,216.436 379.205,222.503 379.205,229.799C379.205,238.59 376.93,246.093 372.34,252.262C367.77,258.43 361.072,262.341 352.26,263.98L384,316.672L351.047,316.672L324.961,266.791L311.393,266.791L311.393,316.672L283.91,316.672L283.91,278.082C283.521,279.209 283.113,280.334 282.662,281.42C279.301,289.515 274.629,296.424 268.645,302.121C262.64,307.818 255.528,312.2 247.311,315.254C239.072,318.307 230.097,319.846 220.342,319.846C210.587,319.846 201.589,318.307 193.371,315.254C185.133,312.2 178.023,307.818 172.039,302.121C166.035,296.424 161.362,289.515 158.021,281.42C154.681,273.325 153.002,264.267 153.002,254.287C153.002,253.303 153.022,252.34 153.063,251.377C152.858,251.664 152.674,251.975 152.469,252.262C147.899,258.43 141.197,262.341 132.385,263.98L164.09,316.672L131.135,316.672L105.047,266.791L91.482,266.791L91.482,316.672L64,316.672L64,191.906L112.26,191.906C118.592,191.906 124.617,192.522 130.314,193.752C136.012,194.982 141.014,197.051 145.297,199.92C149.58,202.809 153.003,206.681 155.523,211.559C157.429,215.247 158.615,219.633 159.086,224.695C162.324,217.646 166.629,211.558 171.998,206.455C178.003,200.758 185.114,196.372 193.332,193.318C201.57,190.265 210.546,188.732 220.301,188.732ZM220.322,214.102C214.441,214.102 209.133,215.106 204.379,217.094C199.604,219.102 195.525,221.89 192.123,225.477C188.701,229.063 186.099,233.305 184.275,238.244C182.451,243.183 181.549,248.528 181.549,254.287C181.549,260.169 182.451,265.541 184.275,270.418C186.099,275.295 188.721,279.515 192.123,283.102C195.545,286.688 199.624,289.495 204.379,291.482C209.133,293.47 214.441,294.477 220.322,294.477C226.183,294.477 231.509,293.491 236.264,291.482C241.039,289.474 245.118,286.688 248.52,283.102C251.942,279.515 254.545,275.295 256.369,270.418C258.193,265.541 259.096,260.169 259.096,254.287C259.096,248.528 258.193,243.183 256.369,238.244C254.545,233.326 251.921,229.063 248.52,225.477C245.097,221.89 241.018,219.082 236.264,217.094C231.509,215.106 226.204,214.102 220.322,214.102ZM91.502,215.166L91.502,243.527L107.713,243.527C110.193,243.527 112.796,243.448 115.563,243.264C118.309,243.1 120.805,242.569 123.039,241.688C125.273,240.806 127.118,239.43 128.594,237.545C130.069,235.66 130.809,233.016 130.809,229.635C130.809,226.458 130.15,223.94 128.859,222.055C127.568,220.169 125.908,218.731 123.92,217.727C121.932,216.722 119.637,216.05 117.055,215.701C114.473,215.353 111.934,215.166 109.475,215.166L91.502,215.166ZM311.373,215.166L311.373,243.527L327.584,243.527C330.064,243.527 332.667,243.448 335.434,243.264C338.18,243.1 340.68,242.569 342.914,241.688C345.148,240.806 346.989,239.43 348.465,237.545C349.94,235.66 350.68,233.016 350.68,229.635C350.68,226.458 350.025,223.94 348.734,222.055C347.443,220.169 345.783,218.731 343.795,217.727C341.807,216.722 339.512,216.05 336.93,215.701C334.348,215.353 331.805,215.166 329.346,215.166L311.373,215.166ZM169.846,331.957L194.705,370.055L144.969,370.055L169.846,331.957ZM273.873,331.957L298.729,370.055L248.992,370.055L273.873,331.957Z" style="fill:rgb(58,58,58);fill-rule:nonzero;"/></g></g></g></svg>