<?xml version="1.0" encoding="UTF-8" standalone="no"?><!DOCTYPE svg PUBLIC "-//W3C//DTD SVG 1.1//EN" "http://www.w3.org/Graphics/SVG/1.1/DTD/svg11.dtd"><svg width="1867px" height="1867px" version="1.1" xmlns="http://www.w3.org/2000/svg" xmlns:xlink="http://www.w3.org/1999/xlink" xml:space="preserve" xmlns:serif="http://www.serif.com/" style="fill-rule:evenodd;clip-rule:evenodd;stroke-linejoin:round;stroke-miterlimit:2;"><g transform="matrix(1,0,0,1,-58935.2,-25160.9)"><rect id="Artboard1" x="0" y="0" width="256000" height="256000" style="fill:none;"/><g id="Artboard11" serif:id="Artboard1"><g id="path2" transform="matrix(4.16667,0,0,4.16667,58935.2,25027.6)"><path d="M48,32C21.5,32 0,53.5 0,80L0,432C0,458.5 21.5,480 48,480L400,480C426.5,480 448,458.5 448,432L448,80C448,53.5 426.5,32 400,32L48,32ZM203.543,96.004C220.888,96.226 227.5,106.983 230.773,118.863C236.644,119.315 242.066,120.208 247.031,121.102C247.937,118.411 250.648,116.141 253.807,116.141C257.869,116.141 260.582,119.315 260.582,122.91L260.582,124.717C270.063,127.879 279.093,132.391 287.225,137.363C288.58,135.555 290.384,134.65 292.643,134.65C296.707,134.65 299.42,137.815 299.42,141.443C299.42,143.23 298.968,144.584 298.063,145.488C305.742,151.828 312.066,159.492 317.938,167.617C318.836,167.165 320.192,166.713 321.096,166.713C325.158,166.713 328.324,169.878 328.324,173.494C328.324,176.217 326.969,178.454 324.709,179.359C329.229,187.507 332.838,196.538 335.545,205.998C335.997,205.557 336.901,205.555 337.354,205.555C341.418,205.555 344.129,208.719 344.129,212.324C344.129,215.941 341.869,218.655 339.164,219.105C340.971,228.577 342.322,238.069 343.225,248.004C347.287,248.004 350.453,251.157 350.453,254.785C350.453,258.841 347.289,261.543 343.678,262.006C343.678,271.488 343.225,281.874 342.322,291.809C345.938,292.26 348.645,295.414 348.645,299.041C348.645,302.646 345.484,305.813 341.416,305.813L340.971,305.813C339.163,315.746 337.354,325.679 335.1,336.064L335.098,336.066L354.063,336.066L354.063,349.164L140.906,349.164L140.906,336.066L158.973,336.066C162.131,293.619 202.777,277.831 225.357,243.498L199.166,243.498C186.518,248.007 167.551,276.022 167.551,292.264L134.584,292.264L135.035,278.713L124.197,287.754L95.293,254.346C95.293,254.346 93.938,252.525 93.938,251.158C93.938,249.813 94.391,248.91 94.391,248.91L140.002,187.057L148.135,162.668L160.328,158.137L172.971,140.541L168.453,109.813C180.647,105.302 192.391,109.36 198.271,115.234C198.712,106.217 197.807,96.283 197.807,96.283C199.839,96.07 201.749,95.981 203.543,96.004ZM210.91,110.264C210.91,110.264 210.909,126.524 207.293,142.787L195.1,140.539C195.1,129.247 190.132,124.718 183.357,121.553L186.52,143.682L178.842,154.973L182.457,165.367L158.521,173.494L151.746,192.91L109.746,250.717L125.555,269.682L143.168,254.787L147.23,257.486L147.23,279.617L156.711,279.617C160.775,263.817 173.872,245.294 186.066,236.264L179.293,228.137L189.227,219.57L198.713,231.303C198.713,231.303 232.584,231.303 232.584,230.861C237.552,220.013 240.709,206.903 240.709,191.555L253.809,191.555C253.809,243.054 228.07,263.353 196.002,294.973C184.261,306.703 173.873,319.362 172.518,336.518L321.549,336.518C347.74,228.579 317.034,142.788 233.49,132.844C233.937,137.364 233.936,140.993 233.936,144.586C233.936,150.011 233.49,154.52 233.49,154.52L220.391,152.281C220.855,147.749 221.749,117.044 210.91,110.264ZM184.713,178.455L185.164,186.604L164.844,197.441L163.488,180.715L184.713,178.455ZM125.104,236.26L133.229,236.713C133.682,242.589 132.776,251.62 129.617,256.129L129.617,256.131L120.137,252.525C123.294,248.005 125.104,241.685 125.104,236.26ZM140.908,389.826L353.613,389.826L353.613,416L140.908,416L140.908,389.826Z" style="fill:rgb(58,58,58);fill-rule:nonzero;"/></g></g></g></svg>