<?xml version="1.0" encoding="UTF-8" standalone="no"?><!DOCTYPE svg PUBLIC "-//W3C//DTD SVG 1.1//EN" "http://www.w3.org/Graphics/SVG/1.1/DTD/svg11.dtd"><svg width="1867px" height="1867px" version="1.1" xmlns="http://www.w3.org/2000/svg" xmlns:xlink="http://www.w3.org/1999/xlink" xml:space="preserve" xmlns:serif="http://www.serif.com/" style="fill-rule:evenodd;clip-rule:evenodd;stroke-linejoin:round;stroke-miterlimit:2;"><g transform="matrix(1,0,0,1,-21590,-25160.9)"><rect id="Artboard1" x="0" y="0" width="256000" height="256000" style="fill:none;"/><g id="Artboard11" serif:id="Artboard1"><g id="path2" transform="matrix(4.16667,0,0,4.16667,21590,25027.6)"><path d="M48,32L400,32C426.5,32 448,53.5 448,80L448,432C448,458.5 426.5,480 400,480L48,480C21.5,480 0,458.5 0,432L0,80C0,53.5 21.5,32 48,32ZM224,96.077C135.677,96.077 64.077,167.677 64.077,256C64.077,344.323 135.677,415.923 224,415.923C312.323,415.923 383.923,344.323 383.923,256C383.923,167.677 312.323,96.077 224,96.077ZM224,110.693C304.251,110.693 369.307,175.749 369.307,256C369.307,336.251 304.251,401.307 224,401.307C143.749,401.307 78.693,336.251 78.693,256C78.693,175.75 143.749,110.693 224,110.693ZM118.029,236.536C118.029,246.531 121.791,248.573 126.09,248.573C130.389,248.573 134.151,246.531 134.151,236.536C134.151,226.541 126.09,205.906 126.09,205.906C126.09,205.906 118.029,226.541 118.029,236.536ZM224.752,232.559C223.678,215.686 241.948,193.223 241.948,193.223C218.841,202.681 215.671,211.817 215.671,219.501C215.671,227.186 224.752,232.559 224.752,232.559ZM340.58,252.739L307.591,261.575L138.022,261.575L138.022,257.281L115.667,257.281L115.667,261.575L110.664,261.575L116.524,274.476L143.183,274.476C158.828,303.549 189.987,323.67 225.317,323.67C249.848,323.67 272.146,314.158 288.731,298.603C305.712,299.106 316.659,293.122 324.432,285.06C337.464,271.558 340.58,252.739 340.58,252.739ZM330.185,262.226C322.05,284.367 306.544,290.146 295.416,291.613C301.697,284.367 306.874,276.124 310.682,267.164L330.185,262.226ZM177.893,250.411L181.52,258.123L270.617,258.123L273.842,250.411L177.893,250.411ZM172.654,239.261L176.281,246.972L275.293,246.972L278.544,239.261L172.654,239.261Z" style="fill:rgb(58,58,58);"/></g></g></g></svg>