<?xml version="1.0" encoding="UTF-8" standalone="no"?><!DOCTYPE svg PUBLIC "-//W3C//DTD SVG 1.1//EN" "http://www.w3.org/Graphics/SVG/1.1/DTD/svg11.dtd"><svg width="1867px" height="1867px" version="1.1" xmlns="http://www.w3.org/2000/svg" xmlns:xlink="http://www.w3.org/1999/xlink" xml:space="preserve" xmlns:serif="http://www.serif.com/" style="fill-rule:evenodd;clip-rule:evenodd;stroke-linejoin:round;stroke-miterlimit:2;"><g transform="matrix(1,0,0,1,-61132,-25160.9)"><rect id="Artboard1" x="0" y="0" width="256000" height="256000" style="fill:none;"/><g id="Artboard11" serif:id="Artboard1"><g id="path2" transform="matrix(4.16667,0,0,4.16667,61132,25027.6)"><path d="M48,32C21.5,32 0,53.5 0,80L0,432C0,458.5 21.5,480 48,480L400,480C426.5,480 448,458.5 448,432L448,80C448,53.5 426.5,32 400,32L48,32ZM224.258,96C260.035,96 294.42,104.392 324.357,128.596C352.975,151.723 372.586,192.159 372.586,255.139C372.586,324.369 351.857,363.25 317.447,388.711C292.583,407.119 260.572,416 223.365,416C187.118,416 151.627,407.243 124.686,384.463C96.367,360.501 75.414,323.912 75.414,255.547C75.414,198.472 89.716,161.931 115.389,136.02C146.195,104.911 188.55,96 224.258,96ZM224.258,112.979C170.094,112.979 143.766,124.849 125.02,145.377C114.241,157.183 106.59,171.469 101.631,189.508C101.824,189.25 102.052,189.021 102.311,188.828L140.697,188.828C140.699,188.828 140.701,188.828 140.703,188.828C142.541,188.828 144.053,190.34 144.053,192.177C144.053,192.179 144.053,192.182 144.053,192.184L144.053,194.029C144.05,195.594 142.951,196.959 141.422,197.295C139.935,197.624 138.372,198.567 137.537,199.773C136.182,201.723 135.18,204.651 138.127,210.689C139.281,213.071 147.388,229.719 155.648,246.777C163.909,263.835 172.258,281.16 174.215,285.541C176.599,290.884 176.735,292.281 177.42,294.688C178.074,293.687 178.222,293.333 179.4,291.543C179.962,290.686 181.02,289.285 182.863,286.857C184.707,284.43 187.207,281.176 190.164,277.363C196.079,269.737 203.83,259.855 211.875,249.832C211.88,249.832 211.885,249.832 211.891,249.832C212.893,248.592 213.328,248.138 213.9,247.518C213.182,246.77 212.537,246.133 211.859,245.311C194.838,224.591 180.006,206.776 177.828,204.143C172.82,198.055 169.271,195.662 169.271,195.662C168.356,195.04 167.806,194.002 167.805,192.895L167.805,192.199C167.805,192.197 167.805,192.195 167.805,192.193C167.805,190.356 169.317,188.844 171.154,188.844C171.156,188.844 171.158,188.844 171.16,188.844L216.002,188.844C215.995,187.239 215.986,185.475 215.986,184.156C215.986,168.146 220.979,159.731 226.525,153.27C223.971,153.627 221.552,154.041 218.119,154.041C213.109,154.041 196.992,153.586 190.678,153.586C184.38,153.586 180.251,154.036 175.439,155.643C171.972,156.796 168.279,159.867 166.957,161.281C165.848,162.473 164.024,162.692 162.664,161.797L161.379,160.949C160.167,160.147 159.609,158.644 160.004,157.246C160.308,156.174 160.677,155.457 161.303,154.207C161.928,152.958 162.761,151.447 163.723,149.838C165.645,146.619 168.01,143.072 170.828,140.584C176.289,135.757 183.808,133.162 194.58,133.162C204.944,133.162 227.856,133.584 234.75,133.584C238.215,133.584 241.515,133.5 244.213,133.236C246.911,132.973 249.053,132.432 249.762,132.059C250.242,131.806 250.776,131.675 251.319,131.675C252.662,131.675 253.882,132.483 254.404,133.721C254.404,133.721 254.491,133.936 254.934,134.719C255.798,136.255 255.31,138.224 253.828,139.178C253.828,139.178 251.239,140.822 248.189,144.289C241.979,151.339 241.088,155.266 240.539,167.783C240.416,170.551 240.396,179.448 240.344,188.828L276.25,188.828C276.252,188.828 276.254,188.828 276.256,188.828C278.094,188.828 279.605,190.34 279.605,192.177C279.605,192.179 279.605,192.182 279.605,192.184L279.605,192.85C279.603,194.006 279.003,195.083 278.02,195.691C277.573,195.969 274.471,198.984 271.396,202.857C271.004,203.351 267.43,208.047 262.174,214.863C256.918,221.679 249.846,230.785 242.006,240.715C241.467,241.401 240.808,242.065 240.268,242.695C240.839,243.308 241.469,243.915 241.945,244.48C241.951,244.485 241.956,244.49 241.961,244.494C249.812,253.859 257.579,263.155 263.701,270.545C269.823,277.935 274.142,283.186 275.645,285.301C276.931,287.114 278.823,289.84 280.469,292.33C280.562,292.471 280.617,292.583 280.709,292.723C281.494,290.17 281.859,288.076 283.189,285.406C287.091,277.559 311.125,222.809 314.289,214.031C317.186,205.984 316.387,202.663 314.35,200.061C314.344,200.056 314.339,200.051 314.334,200.047C312.506,197.701 309.51,197.311 309.51,197.311C307.806,197.144 306.49,195.696 306.486,193.984L306.486,192.199C306.486,192.197 306.486,192.195 306.486,192.193C306.486,190.356 307.998,188.844 309.836,188.844C309.838,188.844 309.841,188.844 309.844,188.844L345.084,188.844C338.672,166.451 328.896,149.289 315.393,137.953C294.796,120.673 272.423,112.979 224.258,112.979ZM100.467,195.873C96.6,212.493 94.465,231.647 94.465,255.32C94.465,299.188 100.719,342.353 126.229,367.863C148.785,390.413 175.421,398.705 223.668,398.705C268.47,398.705 294.941,393.464 318.295,370.553C343.369,345.945 353.445,312.714 353.445,255.32C353.445,232.665 350.865,214.001 346.99,197.324C346.21,197.525 344.855,198.413 343.648,199.486C343.648,199.487 343.648,199.501 343.648,199.502C343.362,199.757 342.206,201.226 341.17,202.965C340.134,204.704 339.058,206.763 338.205,208.572C337.913,209.192 334.845,216.044 330.57,225.596C326.296,235.147 320.714,247.619 315.09,260.188C303.845,285.315 292.592,310.473 290.748,314.281L290.734,314.297C287.763,320.467 285.26,328.01 285.26,328.01C284.813,329.381 283.528,330.318 282.086,330.322L281.088,330.322C279.962,330.321 278.909,329.752 278.291,328.811C278.291,328.811 275.648,324.792 268.51,315.658C266.616,313.241 254.503,298.143 240.539,280.824C240.858,299.814 241.16,320.622 241.16,327.691C241.16,339.049 241.271,345.633 240.586,353.092C240.113,358.24 238.276,365.972 233.102,372.746C227.927,379.52 219.175,385.077 206.221,385.219C195.291,385.339 187.653,381.757 182.969,376.844C178.284,371.931 176.559,365.999 176.559,361.346C176.559,355.818 178.239,350.895 181.35,347.301C184.461,343.707 189.029,341.562 194.096,341.496C203.606,341.364 209.587,348.973 209.486,356.373C209.411,362.612 206.073,367.097 201.67,368.98C202.68,369.436 203.912,370.039 205.51,370.039C210.089,370.039 212.329,369.122 214.248,365.957C216.167,362.792 217.457,356.582 217.348,346.529C217.17,330.418 216.76,300.465 216.576,272.555C202.378,290.905 189.967,307.843 187.383,311.092C179.511,320.983 174.365,328.811 174.365,328.811C173.747,329.752 172.695,330.321 171.568,330.322L170.797,330.322C169.241,330.323 167.88,329.239 167.531,327.723C167.531,327.723 167.247,326.323 163.752,318.637C163.329,317.709 159.727,310.235 154.697,299.889C149.668,289.542 143.126,276.111 136.508,262.592C129.89,249.073 123.193,235.464 117.883,224.75C112.573,214.036 108.503,205.965 107.617,204.416C107.612,204.411 107.607,204.406 107.602,204.4C106.971,203.29 106.142,201.864 105.334,200.605C104.526,199.347 103.607,198.201 103.459,198.066C103.373,197.988 101.645,197.311 101.645,197.311C101.124,196.952 100.716,196.454 100.467,195.873ZM244.969,203.492C242.571,203.494 241.784,203.505 240.252,203.508C240.22,207.161 240.2,210.791 240.178,214.363C244.58,208.908 248.133,204.552 249.021,203.492C247.412,203.49 246.851,203.49 244.969,203.492ZM207.611,203.508C208.714,204.881 211.218,207.879 216.441,214.105C216.404,210.371 216.355,206.862 216.32,203.508L207.611,203.508Z" style="fill:rgb(58,58,58);fill-rule:nonzero;"/></g></g></g></svg>