<?xml version="1.0" encoding="UTF-8" standalone="no"?><!DOCTYPE svg PUBLIC "-//W3C//DTD SVG 1.1//EN" "http://www.w3.org/Graphics/SVG/1.1/DTD/svg11.dtd"><svg width="1867px" height="1867px" version="1.1" xmlns="http://www.w3.org/2000/svg" xmlns:xlink="http://www.w3.org/1999/xlink" xml:space="preserve" xmlns:serif="http://www.serif.com/" style="fill-rule:evenodd;clip-rule:evenodd;stroke-linejoin:round;stroke-miterlimit:2;"><g transform="matrix(1,0,0,1,-30377.1,-25160.9)"><rect id="Artboard1" x="0" y="0" width="256000" height="256000" style="fill:none;"/><g id="Artboard11" serif:id="Artboard1"><g id="path2" transform="matrix(4.16667,0,0,4.16667,30377.1,25027.6)"><path d="M48,32C21.5,32 0,53.5 0,80L0,432C0,458.5 21.5,480 48,480L400,480C426.5,480 448,458.5 448,432L448,80C448,53.5 426.5,32 400,32L48,32ZM210.682,96C272.1,112.545 327.929,147.916 371.682,198C361.77,223.374 348.584,247.046 332.514,268.291C348.587,286.507 361.768,306.828 371.682,328.584C327.965,371.481 272.165,401.796 210.807,416C195.66,397.103 183.526,376.222 174.764,354.041C236.572,344.148 292.559,313.716 332.514,268.291C292.559,215.298 236.575,179.821 174.764,168.291C183.477,142.415 195.588,118.065 210.682,96ZM122.471,169.875L122.473,169.875C139.947,169.673 157.446,170.912 174.721,173.625C171.565,181.572 168.773,189.713 166.389,198C150.569,252.459 153.483,310.137 174.764,362.959C147.095,367.307 118.912,367.926 91.055,364.791C71.391,301.761 71.408,234.815 91.098,171.791C101.533,170.618 111.986,170.003 122.471,169.875Z" style="fill:rgb(58,58,58);fill-rule:nonzero;"/></g></g></g></svg>