<?xml version="1.0" encoding="UTF-8" standalone="no"?><!DOCTYPE svg PUBLIC "-//W3C//DTD SVG 1.1//EN" "http://www.w3.org/Graphics/SVG/1.1/DTD/svg11.dtd"><svg width="1867px" height="1867px" version="1.1" xmlns="http://www.w3.org/2000/svg" xmlns:xlink="http://www.w3.org/1999/xlink" xml:space="preserve" xmlns:serif="http://www.serif.com/" style="fill-rule:evenodd;clip-rule:evenodd;stroke-linejoin:round;stroke-miterlimit:2;"><g transform="matrix(1,0,0,1,-4015.75,-25160.9)"><rect id="Artboard1" x="0" y="0" width="256000" height="256000" style="fill:none;"/><g id="Artboard11" serif:id="Artboard1"><g id="path2" transform="matrix(4.16667,0,0,4.16667,4015.75,25027.6)"><path d="M48,32L400,32C426.5,32 448,53.5 448,80L448,432C448,458.5 426.5,480 400,480L48,480C21.5,480 0,458.5 0,432L0,80C0,53.5 21.5,32 48,32ZM202.737,97.005C160.67,102.963 124.193,123.95 97.798,157.128C82.035,177.107 70.578,202.861 65.813,228.981C63.43,241.812 63.43,270.223 65.813,283.054C69.387,302.942 77.635,324.388 88.084,341.16C111.729,379.103 151.78,405.957 196.963,414.205C209.794,416.588 238.206,416.588 251.037,414.205C273.674,410.081 299.244,399.358 317.483,386.435C328.664,378.462 346.444,360.682 354.417,349.5C367.34,331.262 378.063,305.692 382.187,283.054C384.57,270.223 384.57,241.812 382.187,228.981C378.063,206.344 367.34,180.773 354.417,162.535C346.444,151.354 328.664,133.574 317.483,125.6C299.336,112.769 273.491,101.863 251.495,97.922C239.672,95.814 214.285,95.356 202.737,97.005ZM249.937,104.796C313.725,115.702 364.316,166.293 375.222,230.081C377.697,244.561 377.697,267.474 375.222,281.955C364.316,345.743 313.725,396.333 249.937,407.24C235.456,409.714 212.544,409.714 198.063,407.24C134.275,396.333 83.684,345.743 72.778,281.955C70.303,267.474 70.303,244.561 72.778,230.081C83.593,166.659 134,115.977 197.33,104.796C211.261,102.413 235.823,102.321 249.937,104.796ZM205.303,152.454C190.365,155.111 178.358,162.81 171.943,173.533C166.169,183.431 165.528,198.737 170.568,209.551C178.084,225.407 195.039,233.472 215.11,230.539C225.466,229.073 228.582,229.164 231.882,231.181C240.68,236.496 242.788,258.584 236.373,277.83C228.857,300.01 211.811,318.981 183.857,336.211C172.493,343.177 169.743,347.576 173.134,353.991C177.259,362.148 189.356,359.307 211.169,345.193C242.422,324.847 263.959,298.635 273.949,268.574C279.356,252.168 280.365,245.661 280.273,226.232C280.273,209.918 280.09,208.268 277.707,200.57C273.582,187.189 268.725,178.757 259.743,169.867C251.312,161.344 243.063,156.486 232.707,153.737C226.016,151.995 211.444,151.354 205.303,152.454Z" style="fill:rgb(237,237,237);"/></g></g></g></svg>