<?xml version="1.0" encoding="UTF-8" standalone="no"?><!DOCTYPE svg PUBLIC "-//W3C//DTD SVG 1.1//EN" "http://www.w3.org/Graphics/SVG/1.1/DTD/svg11.dtd"><svg width="1867px" height="1867px" version="1.1" xmlns="http://www.w3.org/2000/svg" xmlns:xlink="http://www.w3.org/1999/xlink" xml:space="preserve" xmlns:serif="http://www.serif.com/" style="fill-rule:evenodd;clip-rule:evenodd;stroke-linejoin:round;stroke-miterlimit:2;"><g transform="matrix(1,0,0,1,-34770.7,-25160.9)"><rect id="Artboard1" x="0" y="0" width="256000" height="256000" style="fill:none;"/><g id="Artboard11" serif:id="Artboard1"><g id="path2" transform="matrix(4.16667,0,0,4.16667,34770.7,25027.6)"><path d="M48,32C21.5,32 0,53.5 0,80L0,432C0,458.5 21.5,480 48,480L400,480C426.5,480 448,458.5 448,432L448,80C448,53.5 426.5,32 400,32L48,32ZM335.379,96L335.379,191.803L266.396,214.52L124.125,165.643L335.379,96ZM112.621,169.43L254.867,218.307L112.621,267.184L112.621,169.43ZM266.396,222.094L323.855,241.029L181.584,289.887L124.145,270.971L266.396,222.094ZM335.379,244.816L335.379,342.57L193.107,293.693L335.379,244.816ZM181.584,297.48L323.855,346.357L112.621,416L112.621,320.197L181.584,297.48Z" style="fill:rgb(237,237,237);fill-rule:nonzero;"/></g></g></g></svg>