<?xml version="1.0" encoding="UTF-8" standalone="no"?><!DOCTYPE svg PUBLIC "-//W3C//DTD SVG 1.1//EN" "http://www.w3.org/Graphics/SVG/1.1/DTD/svg11.dtd"><svg width="1867px" height="1867px" version="1.1" xmlns="http://www.w3.org/2000/svg" xmlns:xlink="http://www.w3.org/1999/xlink" xml:space="preserve" xmlns:serif="http://www.serif.com/" style="fill-rule:evenodd;clip-rule:evenodd;stroke-linejoin:round;stroke-miterlimit:2;"><g transform="matrix(1,0,0,1,-36967.4,-25160.9)"><rect id="Artboard1" x="0" y="0" width="256000" height="256000" style="fill:none;"/><g id="Artboard11" serif:id="Artboard1"><g id="path2" transform="matrix(4.16667,0,0,4.16667,36967.4,25027.6)"><path d="M48,32C21.5,32 0,53.5 0,80L0,432C0,458.5 21.5,480 48,480L400,480C426.5,480 448,458.5 448,432L448,80C448,53.5 426.5,32 400,32L48,32ZM200.963,96.01C217.919,96.321 238.043,103.88 261.219,120.898C211.066,98.022 185.054,123.223 177.867,165.141C178.354,165.138 178.841,165.119 179.328,165.119C321.82,160.206 443.557,200.608 421.719,257.387C405.369,298.743 324.055,328.96 230.318,341.027C266.094,380.697 312.319,392.194 338.195,335.994C339.833,335.448 340.923,335.452 341.469,334.906C320.959,459.748 229.104,421.806 179.156,345.719C128.576,348.516 77.16,345.999 32.465,337.094C29.189,336.548 26.462,335.997 23.732,335.451C69.962,335.686 119.682,329.433 163.781,318.188C159.526,309.066 155.903,299.674 153.117,290.143C117.716,203.985 134.633,98.502 197.615,96.045L197.615,96.043C198.717,96 199.833,95.989 200.963,96.01ZM177.664,166.441C171.873,202.411 179.655,250.242 197.881,290.688C200.168,295.749 202.675,300.651 205.303,305.434C244.488,291.082 275.11,272.252 287.963,250.285C314.472,204.69 250.858,175.115 177.664,166.441Z" style="fill:rgb(237,237,237);fill-rule:nonzero;"/></g></g></g></svg>