<?xml version="1.0" encoding="UTF-8" standalone="no"?><!DOCTYPE svg PUBLIC "-//W3C//DTD SVG 1.1//EN" "http://www.w3.org/Graphics/SVG/1.1/DTD/svg11.dtd"><svg width="1867px" height="1867px" version="1.1" xmlns="http://www.w3.org/2000/svg" xmlns:xlink="http://www.w3.org/1999/xlink" xml:space="preserve" xmlns:serif="http://www.serif.com/" style="fill-rule:evenodd;clip-rule:evenodd;stroke-linejoin:round;stroke-miterlimit:2;"><g transform="matrix(1,0,0,1,-65581.8,-28317.4)"><rect id="Artboard1" x="0" y="0" width="256000" height="256000" style="fill:none;"/><g id="Artboard11" serif:id="Artboard1"><g id="unpaywall"><g id="path2" transform="matrix(4.16667,0,0,4.16667,65581.8,28184.1)"><path d="M48,32L400,32C426.5,32 448,53.5 448,80L448,432C448,458.5 426.5,480 400,480L48,480C21.5,480 0,458.5 0,432L0,80C0,53.5 21.5,32 48,32ZM363.777,415.992L363.777,96.008L244.216,96.008C201.786,96.008 161.088,112.864 131.084,142.869C101.08,172.872 84.223,213.57 84.223,256C84.223,298.43 101.08,339.127 131.084,369.127C161.088,399.138 201.786,415.992 244.216,415.992L363.777,415.992Z" style="fill:rgb(237,237,237);"/></g><g id="unlock_alt" transform="matrix(0.481324,0,0,0.481324,65932.8,28584.1)"><path d="M1841,1376C1867.67,1376 1890.33,1385.33 1909,1404C1927.67,1422.67 1937,1445.33 1937,1472L1937,2048C1937,2074.67 1927.67,2097.33 1909,2116C1890.33,2134.67 1867.67,2144 1841,2144L881,2144C854.333,2144 831.667,2134.67 813,2116C794.333,2097.33 785,2074.67 785,2048L785,1472C785,1445.33 794.333,1422.67 813,1404C831.667,1385.33 854.333,1376 881,1376L913,1376L913,1056C913,932.667 956.833,827.167 1044.5,739.5C1132.17,651.833 1237.67,608 1361,608C1484.33,608 1589.83,651.833 1677.5,739.5C1765.17,827.167 1809,932.667 1809,1056C1809,1073.33 1802.67,1088.33 1790,1101C1777.33,1113.67 1762.33,1120 1745,1120L1681,1120C1663.67,1120 1648.67,1113.67 1636,1101C1623.33,1088.33 1617,1073.33 1617,1056C1617,985.333 1592,925 1542,875C1492,825 1431.67,800 1361,800C1290.33,800 1230,825 1180,875C1130,925 1105,985.333 1105,1056L1105,1376L1841,1376Z" style="fill:rgb(237,237,237);fill-rule:nonzero;"/></g></g></g></g></svg>