<?xml version="1.0" encoding="UTF-8" standalone="no"?><!DOCTYPE svg PUBLIC "-//W3C//DTD SVG 1.1//EN" "http://www.w3.org/Graphics/SVG/1.1/DTD/svg11.dtd"><svg width="1867px" height="1867px" version="1.1" xmlns="http://www.w3.org/2000/svg" xmlns:xlink="http://www.w3.org/1999/xlink" xml:space="preserve" xmlns:serif="http://www.serif.com/" style="fill-rule:evenodd;clip-rule:evenodd;stroke-linejoin:round;stroke-miterlimit:2;"><g transform="matrix(1,0,0,1,-41361,-25160.9)"><rect id="Artboard1" x="0" y="0" width="256000" height="256000" style="fill:none;"/><g id="Artboard11" serif:id="Artboard1"><g id="path2" transform="matrix(4.16667,0,0,4.16667,41361,25027.6)"><path d="M48,32C21.5,32 0,53.5 0,80L0,432C0,458.5 21.5,480 48,480L400,480C426.5,480 448,458.5 448,432L448,80C448,53.5 426.5,32 400,32L48,32ZM310.939,96L332.164,96L332.164,182.123L310.939,182.123L302.775,135.592L199.918,135.592L199.918,251.51L275.836,251.51L281.551,217.225L301.551,217.225L301.551,307.428L281.551,307.428L275.836,273.551L199.918,273.551L199.918,364.98C199.918,385.389 201.143,387.836 202.367,389.061C203.592,390.285 207.673,391.51 241.143,391.51L271.348,391.51C295.837,391.51 307.674,389.878 312.98,384.572C318.695,378.858 325.225,363.346 333.389,329.469L353.797,329.469L345.633,414.367L175.428,414.367C146.856,414.367 116.244,415.184 94.203,416L94.203,396L147.266,391.918L147.674,391.51L147.674,135.592L94.611,131.51L94.611,111.102C123.183,112.326 143.591,113.143 156.244,113.143L306.857,113.143L310.939,96Z" style="fill:rgb(237,237,237;fill-rule:nonzero;"/></g></g></g></svg>