<?xml version="1.0" encoding="UTF-8" standalone="no"?><!DOCTYPE svg PUBLIC "-//W3C//DTD SVG 1.1//EN" "http://www.w3.org/Graphics/SVG/1.1/DTD/svg11.dtd"><svg width="1867px" height="1867px" version="1.1" xmlns="http://www.w3.org/2000/svg" xmlns:xlink="http://www.w3.org/1999/xlink" xml:space="preserve" xmlns:serif="http://www.serif.com/" style="fill-rule:evenodd;clip-rule:evenodd;stroke-linejoin:round;stroke-miterlimit:2;"><g transform="matrix(1,0,0,1,-43557.8,-25160.9)"><rect id="Artboard1" x="0" y="0" width="256000" height="256000" style="fill:none;"/><g id="Artboard11" serif:id="Artboard1"><g id="path2" transform="matrix(4.16667,0,0,4.16667,43557.8,25027.6)"><path d="M48,32C21.5,32 0,53.5 0,80L0,432C0,458.5 21.5,480 48,480L400,480C426.5,480 448,458.5 448,432L448,80C448,53.5 426.5,32 400,32L48,32ZM188.695,96L366.936,96L350.465,108.859L350.465,131.553C356.581,132.338 355.934,136.013 355.934,140.41L355.934,247.633C355.934,252.598 351.872,256.662 346.906,256.662L343.582,256.662C338.616,256.662 334.553,252.598 334.553,247.633L334.553,140.41C334.553,136.002 333.913,132.324 340.074,131.549L340.074,117.283L292.65,156.176C293.198,157.192 293.718,157.843 294.213,158.695C298.38,166.073 300.502,175.244 300.502,186.455C300.502,195.048 299.07,202.77 296.166,209.586C293.275,216.403 289.759,221.97 285.658,226.26C281.557,230.564 277.443,234.496 273.328,238.037C269.215,241.585 265.699,245.284 262.82,249.125C259.919,252.953 258.473,256.912 258.473,261.014C258.473,265.122 260.349,269.295 264.086,273.5C267.81,277.719 272.391,281.806 277.809,285.844C283.238,289.854 288.655,294.307 294.072,299.15C299.501,303.986 304.059,310.211 307.783,317.771C311.534,325.357 313.408,333.709 313.408,342.889C313.408,354.998 310.321,365.935 304.162,375.668C297.99,385.361 289.943,393.097 280.061,398.768C270.152,404.477 259.553,408.774 248.252,411.678C236.924,414.555 225.687,416 214.463,416C207.379,416 200.23,415.453 193.041,414.334C185.829,413.214 178.603,411.236 171.324,408.449C164.033,405.643 157.573,402.198 151.975,398.059C146.363,393.964 141.845,388.677 138.381,382.238C134.917,375.8 133.197,368.56 133.197,360.52C133.197,350.981 135.854,342.134 141.18,333.885C146.505,325.695 153.562,318.859 162.338,313.443C177.651,303.918 201.674,298.032 234.369,295.807C226.896,286.464 223.146,277.667 223.146,269.438C223.146,264.755 224.368,259.738 226.791,254.32C222.885,254.867 218.862,255.174 214.76,255.174C197.197,255.174 182.364,249.464 170.32,237.967C158.276,226.488 152.262,212.121 152.262,194.75C152.262,192.934 152.314,191.331 152.443,189.561L81.064,189.561L188.695,96ZM220.074,134.334C208.875,134.334 200.282,138.363 194.293,146.404C188.305,154.424 185.309,164.139 185.309,175.551C185.309,185.271 186.949,195.167 190.23,205.258C193.499,215.343 198.852,224.347 206.352,232.283C213.825,240.239 222.523,244.209 232.406,244.209C243.422,244.209 252.029,240.52 258.201,233.137C264.346,225.766 267.432,216.463 267.432,205.258C267.432,195.713 265.805,185.721 262.537,175.271C259.281,164.809 253.852,155.369 246.273,146.965C238.721,138.533 229.97,134.334 220.074,134.334ZM238.592,306.414C230.557,306.414 222.653,307.126 214.893,308.545C207.132,309.925 199.476,312.255 191.924,315.543C184.345,318.813 178.226,323.618 173.564,329.973C168.877,336.319 166.545,343.794 166.545,352.395C166.545,360.59 168.604,367.901 172.719,374.268C176.821,380.595 182.237,385.552 188.969,389.1C195.701,392.654 202.758,395.336 210.127,397.1C217.51,398.851 225.024,399.764 232.68,399.764C247.822,399.764 260.855,396.353 271.793,389.535C282.704,382.719 288.174,372.193 288.174,357.986C288.174,354.998 287.757,352.054 286.936,349.184C286.077,346.28 285.232,343.794 284.398,341.73C283.565,339.705 281.977,337.263 279.633,334.451C277.302,331.633 275.517,329.549 274.318,328.162C273.094,326.73 270.806,324.685 267.432,321.982C264.087,319.269 261.951,317.577 261,316.951L260.998,316.951C260.06,316.294 257.626,314.516 253.707,311.631C249.788,308.72 247.641,307.177 247.262,306.994C245.204,306.623 242.316,306.414 238.592,306.414Z" style="fill:rgb(237,237,237);fill-rule:nonzero;"/></g></g></g></svg>