<?xml version="1.0" encoding="UTF-8" standalone="no"?><!DOCTYPE svg PUBLIC "-//W3C//DTD SVG 1.1//EN" "http://www.w3.org/Graphics/SVG/1.1/DTD/svg11.dtd"><svg width="1867px" height="1867px" version="1.1" xmlns="http://www.w3.org/2000/svg" xmlns:xlink="http://www.w3.org/1999/xlink" xml:space="preserve" xmlns:serif="http://www.serif.com/" style="fill-rule:evenodd;clip-rule:evenodd;stroke-linejoin:round;stroke-miterlimit:2;"><g transform="matrix(1,0,0,1,-25983.5,-25160.9)"><rect id="Artboard1" x="0" y="0" width="256000" height="256000" style="fill:none;"/><g id="Artboard11" serif:id="Artboard1"><g id="path2" transform="matrix(4.16667,0,0,4.16667,25983.5,25027.6)"><path d="M48,32L400,32C426.5,32 448,53.5 448,80L448,432C448,458.5 426.5,480 400,480L48,480C21.5,480 0,458.5 0,432L0,80C0,53.5 21.5,32 48,32ZM299.586,383.065L299.616,383.079C306.304,392.311 315.92,399.007 326.898,402.079C337.876,405.152 349.571,404.419 360.08,400.001C370.588,395.583 379.293,387.74 384.779,377.746C390.264,367.752 392.206,356.197 390.289,344.959C388.373,333.722 382.711,323.463 374.224,315.852C365.736,308.242 354.924,303.726 343.544,303.04C332.165,302.355 320.889,305.54 311.55,312.077C302.211,318.614 295.358,328.12 292.106,339.045C290.558,341.508 288.491,343.603 286.049,345.184C283.607,346.765 280.851,347.794 277.97,348.201L174.664,348.201C167.598,347.453 161,344.311 155.964,339.296C155.539,338.879 155.13,338.451 154.738,338.01L154.649,337.914L154.584,337.834C151.151,333.957 148.738,329.285 147.566,324.24L147.566,324.079C147.56,324.035 147.56,323.99 147.566,323.946L147.515,323.697C147.412,323.234 147.317,322.735 147.236,322.227C146.185,315.738 147.214,309.082 150.175,303.212L201.218,214.814C203.039,212.63 205.321,210.875 207.9,209.675C210.478,208.475 213.289,207.859 216.133,207.871L217.559,207.871C228.693,209.797 240.151,207.918 250.087,202.536C260.022,197.154 267.856,188.584 272.326,178.206C276.795,167.828 277.639,156.247 274.722,145.33C271.805,134.414 265.296,124.798 256.247,118.032C247.197,111.266 236.132,107.745 224.836,108.037C213.54,108.328 202.672,112.415 193.982,119.638C185.294,126.861 179.29,136.8 176.94,147.852C174.589,158.905 176.029,170.426 181.027,180.56C181.079,180.707 181.123,180.854 181.174,180.994C182.299,184.237 182.863,187.649 182.842,191.082C182.827,195.559 181.863,199.981 180.013,204.057L130.667,289.523C127.964,293.451 124.392,296.705 120.23,299.032C116.067,301.358 111.425,302.695 106.663,302.941C106.173,302.969 105.683,302.985 105.194,302.985L104.929,302.985C104.058,302.977 103.187,303.045 102.328,303.19C93.922,304.059 85.867,307.021 78.902,311.808C71.938,316.595 66.284,323.052 62.46,330.589C58.637,338.125 56.764,346.5 57.014,354.948C57.265,363.395 59.63,371.645 63.893,378.942C68.157,386.239 74.182,392.35 81.419,396.716C88.655,401.082 96.87,403.562 105.313,403.932C113.757,404.301 122.157,402.547 129.747,398.829C137.337,395.112 143.873,389.55 148.757,382.654C153.953,376.813 161.166,373.154 168.948,372.411L279.388,372.411C287.216,373.312 294.423,377.113 299.586,383.065Z" style="fill:rgb(237,237,237);"/></g></g></g></svg>