<?xml version="1.0" encoding="UTF-8" standalone="no"?><!DOCTYPE svg PUBLIC "-//W3C//DTD SVG 1.1//EN" "http://www.w3.org/Graphics/SVG/1.1/DTD/svg11.dtd"><svg width="1867px" height="1867px" version="1.1" xmlns="http://www.w3.org/2000/svg" xmlns:xlink="http://www.w3.org/1999/xlink" xml:space="preserve" xmlns:serif="http://www.serif.com/" style="fill-rule:evenodd;clip-rule:evenodd;stroke-linejoin:round;stroke-miterlimit:2;"><g transform="matrix(1,0,0,1,-45754.6,-25160.9)"><rect id="Artboard1" x="0" y="0" width="256000" height="256000" style="fill:none;"/><g id="Artboard11" serif:id="Artboard1"><g id="path2" transform="matrix(4.16667,0,0,4.16667,45754.6,25027.6)"><path d="M48,32C21.5,32 0,53.5 0,80L0,432C0,458.5 21.5,480 48,480L400,480C426.5,480 448,458.5 448,432L448,80C448,53.5 426.5,32 400,32L48,32ZM224.193,96C271.244,96 309.754,134.51 309.754,181.561L309.754,262.113C319.339,277.537 324.891,295.701 324.891,315.109C324.891,370.626 279.517,416 224,416C168.483,416 123.109,370.626 123.109,315.109C123.109,259.592 168.483,214.221 224,214.221C242.779,214.221 260.394,219.418 275.488,228.438L275.488,181.561C275.488,153.028 252.725,130.266 224.193,130.266C195.662,130.266 172.9,153.028 172.9,181.561L172.9,193.246L138.635,193.246L138.635,181.561C138.635,134.51 177.143,96 224.193,96ZM224,248.484C187.001,248.484 157.375,278.111 157.375,315.109C157.375,352.108 187.001,381.734 224,381.734C260.999,381.734 290.625,352.108 290.625,315.109C290.625,278.111 260.999,248.484 224,248.484ZM224.328,287.146C239.94,287.146 252.598,299.802 252.598,315.414C252.598,331.026 239.94,343.684 224.328,343.684C208.716,343.684 196.061,331.026 196.061,315.414C196.061,299.802 208.716,287.146 224.328,287.146Z" style="fill:rgb(44,162,95);fill-rule:nonzero;"/></g></g></g></svg>
