<?xml version="1.0" encoding="UTF-8" standalone="no"?><!DOCTYPE svg PUBLIC "-//W3C//DTD SVG 1.1//EN" "http://www.w3.org/Graphics/SVG/1.1/DTD/svg11.dtd"><svg width="1867px" height="1867px" version="1.1" xmlns="http://www.w3.org/2000/svg" xmlns:xlink="http://www.w3.org/1999/xlink" xml:space="preserve" xmlns:serif="http://www.serif.com/" style="fill-rule:evenodd;clip-rule:evenodd;stroke-linejoin:round;stroke-miterlimit:2;"><g transform="matrix(1,0,0,1,-19393.2,-25160.9)"><rect id="Artboard1" x="0" y="0" width="256000" height="256000" style="fill:none;"/><g id="Artboard11" serif:id="Artboard1"><g id="path2" transform="matrix(4.16667,0,0,4.16667,19393.2,25027.6)"><path d="M48,32L400,32C426.5,32 448,53.5 448,80L448,432C448,458.5 426.5,480 400,480L48,480C21.5,480 0,458.5 0,432L0,80C0,53.5 21.5,32 48,32ZM253.411,238.34C253.411,238.371 253.405,238.403 253.397,238.435C253.343,238.631 253.142,238.751 252.952,238.699C252.919,238.689 252.888,238.675 252.859,238.657C245.321,234.12 237.679,229.552 229.993,224.987C226.884,223.14 223.822,223.089 220.824,224.836C181.509,247.741 144.143,269.53 109.035,290.023C106.103,291.743 104.631,294.291 104.631,297.645C104.621,309.591 104.611,324.879 104.603,343.28L105.652,347.45L108.58,350.487C147.017,372.551 184.606,394.076 221.073,414.901L225.408,415.992L229.73,414.777C267.466,392.32 304.002,370.585 339.006,349.769C341.921,348.031 343.379,345.53 343.369,342.286C343.358,285.999 343.367,227.868 343.397,168.361L342.14,163.653L339.034,160.712C302.86,139.702 266.415,118.511 229.965,97.292L225.602,96.008L221.197,96.961C184.515,117.808 148.341,138.369 112.902,158.516L111.728,159.179L107.641,161.72L105.556,164.081L104.644,168.113C104.609,180.968 104.604,194.975 104.631,210.033L105.639,213.983L108.469,216.91C120.75,223.83 133.028,230.743 145.212,237.594C148.302,239.332 151.491,239.277 154.753,237.428C177.876,224.297 201.228,211.059 224.635,197.813C224.961,197.634 225.359,197.64 225.685,197.827L252.776,214.217C253.171,214.458 253.411,214.888 253.411,215.35L253.411,238.34ZM226.361,145.509C225.68,145.013 224.971,144.972 224.235,145.385C198.567,159.476 173.39,173.311 148.899,186.781C148.346,187.079 148.001,187.659 148.001,188.286L148.015,225.167C148.015,225.204 148.011,225.24 148.001,225.276C147.942,225.511 147.692,225.653 147.45,225.591C147.416,225.583 147.384,225.57 147.352,225.554L116.989,208.473C116.474,208.189 116.215,207.75 116.215,207.161L116.215,170.653C116.215,170.148 116.438,169.77 116.878,169.521L224.759,108.214C225.066,108.033 225.447,108.033 225.754,108.214L328.954,168.196C329.506,168.517 329.497,168.827 328.926,169.121L296.174,186.408C295.275,186.883 294.71,187.821 294.71,188.838L294.821,315.885C294.822,316.347 294.586,316.777 294.199,317.017L224.428,359.918C223.75,360.338 223.337,361.081 223.337,361.879L223.351,402.17C223.352,402.212 223.347,402.252 223.337,402.292C223.274,402.527 223.024,402.666 222.782,402.601C222.745,402.59 222.709,402.576 222.674,402.557L116.878,341.968C116.47,341.739 116.215,341.3 116.215,340.822L116.215,300.089C116.215,299.482 116.474,299.03 116.989,298.735L224.732,235.896C225.091,235.684 225.45,235.684 225.809,235.896C235.607,241.749 245.509,247.67 255.441,253.611L258.506,254.771L261.074,254.523L263.96,251.83L264.968,247.218C264.858,235.618 264.84,223.732 264.913,211.649C264.929,209.441 263.772,207.381 261.875,206.236L227.618,185.552C227.203,185.304 226.996,184.935 226.996,184.447C227.108,157.834 227.122,145.218 227.038,146.71C226.994,146.22 226.746,145.78 226.361,145.509ZM262.378,296.013L225.036,274.349L183.26,297.113L225.546,320.305L262.378,296.013Z" style="fill:rgb(237,237,237);"/></g></g></g></svg>