<?xml version="1.0" encoding="UTF-8" standalone="no"?><!DOCTYPE svg PUBLIC "-//W3C//DTD SVG 1.1//EN" "http://www.w3.org/Graphics/SVG/1.1/DTD/svg11.dtd"><svg width="1867px" height="1867px" version="1.1" xmlns="http://www.w3.org/2000/svg" xmlns:xlink="http://www.w3.org/1999/xlink" xml:space="preserve" xmlns:serif="http://www.serif.com/" style="fill-rule:evenodd;clip-rule:evenodd;stroke-linejoin:round;stroke-miterlimit:2;"><g transform="matrix(1,0,0,1,-14999.6,-25160.9)"><rect id="Artboard1" x="0" y="0" width="256000" height="256000" style="fill:none;"/><g id="Artboard11" serif:id="Artboard1"><g id="path2" transform="matrix(4.16667,0,0,4.16667,14999.6,25027.6)"><path d="M48,32L400,32C426.5,32 448,53.5 448,80L448,432C448,458.5 426.5,480 400,480L48,480C21.5,480 0,458.5 0,432L0,80C0,53.5 21.5,32 48,32ZM232.625,197.224C232.535,197.135 232.445,197.045 232.355,196.956C216.184,180.785 193.725,170.903 169.109,170.903C119.519,170.903 79.272,211.15 79.272,260.74C79.272,310.33 119.519,350.578 169.109,350.578C193.589,350.578 215.936,340.804 232.086,324.792C232.235,324.943 232.385,325.093 232.535,325.243C248.705,341.414 271.165,351.296 295.78,351.296C325.606,351.296 351.839,336.743 368.189,314.643L342.316,295.777L323.63,281.403C317.341,290.027 307.1,295.597 295.6,295.597C276.375,295.597 260.923,280.145 260.923,260.92C260.923,241.695 276.375,226.243 295.6,226.243C307.1,226.243 317.161,231.813 323.63,240.437L342.316,226.782L368.189,207.916C351.839,185.636 325.426,171.262 295.78,171.262C271.211,171.262 248.789,181.107 232.625,197.224ZM169.109,295.597C149.884,295.597 134.432,280.145 134.432,260.92C134.432,241.695 150.064,226.243 169.109,226.243C188.335,226.243 203.787,241.695 203.787,260.92C203.787,279.965 188.335,295.597 169.109,295.597Z" style="fill:rgb(237,237,237);"/></g></g></g></svg>