<?xml version="1.0" encoding="UTF-8" standalone="no"?><!DOCTYPE svg PUBLIC "-//W3C//DTD SVG 1.1//EN" "http://www.w3.org/Graphics/SVG/1.1/DTD/svg11.dtd"><svg width="1867px" height="1867px" version="1.1" xmlns="http://www.w3.org/2000/svg" xmlns:xlink="http://www.w3.org/1999/xlink" xml:space="preserve" xmlns:serif="http://www.serif.com/" style="fill-rule:evenodd;clip-rule:evenodd;stroke-linejoin:round;stroke-miterlimit:2;"><g transform="matrix(1,0,0,1,-10606.1,-25160.9)"><rect id="Artboard1" x="0" y="0" width="256000" height="256000" style="fill:none;"/><g id="Artboard11" serif:id="Artboard1"><g id="path2" transform="matrix(4.16667,0,0,4.16667,10606.1,25027.6)"><path d="M48,32L400,32C426.5,32 448,53.5 448,80L448,432C448,458.5 426.5,480 400,480L48,480C21.5,480 0,458.5 0,432L0,80C0,53.5 21.5,32 48,32ZM392.73,324.37C392.73,324.31 392.682,324.262 392.622,324.262L215.827,324.262C215.767,324.262 215.719,324.31 215.719,324.37L215.719,361.652C215.719,361.712 215.767,361.76 215.827,361.76L392.622,361.76C392.682,361.76 392.73,361.712 392.73,361.652L392.73,324.37ZM119.163,184.968C136.229,182.802 146.954,189.643 151.339,205.491C151.589,206.457 152.589,207.055 153.577,206.828L189.083,198.831C189.612,198.708 189.989,198.232 189.989,197.689C189.989,197.596 189.978,197.503 189.956,197.412C183.788,171.631 167.059,156.375 139.768,151.645C118.016,147.879 96.456,151.399 78.608,165.673C51.835,187.124 53.145,228.47 82.592,246.209C88.16,249.566 97.166,253.414 102.433,254.533C114.86,257.153 125.776,259.691 135.183,262.147C154.887,267.278 150.629,291.458 131.58,293.668C110.802,296.107 98.349,288.201 94.218,269.952C94.07,269.264 93.456,268.769 92.751,268.769C92.639,268.769 92.527,268.781 92.417,268.806L57.457,276.502C55.711,276.884 55.01,277.958 55.356,279.723C63.434,321.833 110.375,335.369 147.191,326.527C175.328,319.759 195.578,296.125 191.321,266.568C185.781,228.115 147.109,222.466 116.488,216.516C93.454,212.013 98.913,187.533 119.163,184.968Z" style="fill:rgb(237,237,237);"/></g></g></g></svg>