<?xml version="1.0" encoding="UTF-8" standalone="no"?><!DOCTYPE svg PUBLIC "-//W3C//DTD SVG 1.1//EN" "http://www.w3.org/Graphics/SVG/1.1/DTD/svg11.dtd"><svg width="1867px" height="1867px" version="1.1" xmlns="http://www.w3.org/2000/svg" xmlns:xlink="http://www.w3.org/1999/xlink" xml:space="preserve" xmlns:serif="http://www.serif.com/" style="fill-rule:evenodd;clip-rule:evenodd;stroke-linejoin:round;stroke-miterlimit:2;"><g transform="matrix(1,0,0,1,-54541.7,-25160.9)"><rect id="Artboard1" x="0" y="0" width="256000" height="256000" style="fill:none;"/><g id="Artboard11" serif:id="Artboard1"><g id="path2" transform="matrix(4.16667,0,0,4.16667,54541.7,25027.6)"><path d="M48,32C21.5,32 0,53.5 0,80L0,432C0,458.5 21.5,480 48,480L400,480C426.5,480 448,458.5 448,432L448,80C448,53.5 426.5,32 400,32L48,32ZM64,96L384,96L384,416L64,416L64,96ZM161.346,179.271C134.86,179.271 118.713,196.498 118.713,218.461C118.713,240.424 138.091,249.9 155.748,260.666C168.883,268.633 182.662,274.017 182.662,288.229C182.662,302.01 170.39,311.916 155.748,311.916C141.321,311.916 131.847,308.683 120.865,302.008L118.279,319.02C129.477,324.187 140.888,326.557 156.607,326.557C178.571,326.557 201.611,312.992 201.611,286.076C201.611,265.62 183.523,256.359 166.082,246.023C152.516,237.841 138.09,232.243 138.09,217.17C138.09,205.973 146.272,193.701 162.422,193.701C176.418,193.701 186.109,195.851 198.383,203.172L199.459,186.164C188.046,181.427 179.864,179.271 161.346,179.271ZM296.1,179.271C254.326,179.271 222.674,211.786 222.674,253.129C222.674,300.286 260.356,326.127 295.455,326.127C313.112,326.127 327.753,323.757 339.381,317.943L338.09,301.578C324.955,308.684 310.957,311.484 296.961,311.484C266.384,311.484 242.053,285.86 242.053,251.838C242.053,215.878 265.953,193.701 293.945,193.701C311.602,193.701 325.17,196.5 338.09,203.605L339.381,187.455C327.538,181.857 317.848,179.271 296.1,179.271Z" style="fill:rgb(237,237,237);fill-rule:nonzero;"/></g></g></g></svg>