<?xml version="1.0" encoding="UTF-8" standalone="no"?><!DOCTYPE svg PUBLIC "-//W3C//DTD SVG 1.1//EN" "http://www.w3.org/Graphics/SVG/1.1/DTD/svg11.dtd"><svg width="1867px" height="1867px" version="1.1" xmlns="http://www.w3.org/2000/svg" xmlns:xlink="http://www.w3.org/1999/xlink" xml:space="preserve" xmlns:serif="http://www.serif.com/" style="fill-rule:evenodd;clip-rule:evenodd;stroke-linejoin:round;stroke-miterlimit:2;"><g transform="matrix(1,0,0,1,-56738.5,-25160.9)"><rect id="Artboard1" x="0" y="0" width="256000" height="256000" style="fill:none;"/><g id="Artboard11" serif:id="Artboard1"><g id="path2" transform="matrix(4.16667,0,0,4.16667,56738.5,25027.6)"><path d="M48,32C21.5,32 0,53.5 0,80L0,432C0,458.5 21.5,480 48,480L400,480C426.5,480 448,458.5 448,432L448,80C448,53.5 426.5,32 400,32L48,32ZM119.564,139.355L303.41,139.355C315.132,165.603 319.884,193.478 324.328,221.426C323.512,221.657 322.697,221.892 321.881,222.125C321.293,220.49 320.599,218.887 320.133,217.217C316.766,205.182 313.373,193.154 310.15,181.08C308.991,176.736 306.258,174.573 302.348,172.445C296.605,169.322 291.177,165.297 286.418,160.805C283.381,157.94 280.783,156.191 276.475,156.236C247.79,156.54 219.103,156.57 190.42,156.834C188.508,156.853 186.142,157.558 184.789,158.811C179.571,163.639 174.679,168.821 168.246,175.299C185.213,216.615 193.743,261.648 190.08,309.521C181.934,304.306 175.628,300.178 175.254,289.25C173.38,234.63 156.53,185.236 121.33,142.73C120.538,141.774 120.145,140.487 119.564,139.355ZM102.533,160.383C106.618,160.38 110.702,160.407 114.783,160.527C116.403,160.574 118.669,161.605 119.479,162.902C143.889,202.122 162.919,243.312 165.385,290.439C165.396,290.626 165.203,290.822 164.506,292.191C149.918,242.325 123.6,200.104 89.75,162.262C89.927,161.648 90.101,161.033 90.277,160.418C94.362,160.418 98.448,160.385 102.533,160.383ZM95.414,193.695C96.408,193.676 97.582,194.99 98.414,195.916C117.671,217.336 135.148,239.968 145.92,267.035C147.97,272.183 149.373,277.59 151.074,282.877C128.762,247.764 97.712,221.509 64,194.729C75.67,194.304 85.542,193.879 95.414,193.695ZM382.533,212.664C382.969,212.627 383.448,212.659 384,212.799C310.695,255.371 240.76,301.986 189.467,372.645C169.156,340.344 149.593,309.231 130.029,278.119C130.269,277.811 130.509,277.507 130.748,277.199C132.388,278.52 167.278,306.496 182.947,319.328C187.312,322.903 190.61,322.84 195.15,319.152C248.43,275.871 307.883,243.112 371.01,216.695C374.379,215.286 377.876,214.167 381.322,212.941C381.705,212.806 382.097,212.701 382.533,212.664Z" style="fill:rgb(237,237,237);fill-rule:nonzero;"/></g></g></g></svg>